<svg width="238" height="238" viewBox="0 0 238 238" fill="none" xmlns="http://www.w3.org/2000/svg">
<path d="M216.256 162.283C215.921 162.217 215.596 162.19 215.281 162.205C214.966 162.219 214.666 162.288 214.381 162.411C214.097 162.535 213.837 162.717 213.601 162.96C213.361 163.188 213.151 163.489 212.97 163.864C212.706 164.413 212.587 164.942 212.613 165.453C212.645 165.954 212.787 166.42 213.042 166.85C213.287 167.277 213.615 167.666 214.026 168.018C214.442 168.361 214.895 168.65 215.386 168.886C215.876 169.123 216.385 169.297 216.912 169.409C217.443 169.511 217.957 169.527 218.453 169.458C218.939 169.384 219.387 169.203 219.799 168.915C220.215 168.618 220.555 168.195 220.819 167.647C221.014 167.243 221.118 166.854 221.131 166.482C221.135 166.104 221.071 165.747 220.937 165.41C220.793 165.068 220.588 164.756 220.321 164.473C220.055 164.191 219.743 163.94 219.386 163.721L220.235 161.96C220.832 162.296 221.329 162.701 221.728 163.178C222.131 163.645 222.428 164.161 222.617 164.727C222.797 165.287 222.863 165.876 222.815 166.493C222.767 167.11 222.592 167.731 222.29 168.356C221.92 169.126 221.446 169.751 220.871 170.232C220.29 170.699 219.653 171.026 218.958 171.213C218.264 171.399 217.534 171.451 216.768 171.366C216.008 171.272 215.257 171.047 214.516 170.69C213.785 170.338 213.146 169.893 212.599 169.357C212.056 168.811 211.641 168.208 211.355 167.548C211.068 166.889 210.926 166.186 210.93 165.441C210.938 164.687 211.127 163.925 211.498 163.155C211.776 162.578 212.12 162.074 212.529 161.643C212.929 161.207 213.375 160.871 213.868 160.635C214.357 160.384 214.875 160.243 215.424 160.211C215.973 160.179 216.54 160.269 217.126 160.48L216.256 162.283Z" fill="white"/>
<path d="M214.233 157.648L214.905 155.95L225.538 160.158L224.866 161.856L214.233 157.648Z" fill="white"/>
<path d="M227.842 154.392C227.637 155.021 227.352 155.551 226.986 155.982C226.615 156.399 226.19 156.721 225.712 156.947C225.238 157.162 224.717 157.279 224.15 157.296C223.587 157.303 223.001 157.207 222.392 157.008C221.794 156.813 221.269 156.546 220.818 156.208C220.371 155.86 220.019 155.459 219.763 155.005C219.51 154.541 219.362 154.033 219.318 153.48C219.267 152.913 219.344 152.315 219.55 151.687C219.755 151.058 220.043 150.534 220.415 150.117C220.78 149.686 221.2 149.363 221.674 149.147C222.152 148.922 222.673 148.805 223.236 148.798C223.803 148.781 224.385 148.871 224.984 149.066C225.593 149.264 226.121 149.538 226.568 149.886C227.019 150.224 227.371 150.625 227.624 151.089C227.88 151.543 228.033 152.053 228.084 152.619C228.128 153.173 228.047 153.764 227.842 154.392ZM226.472 153.946C226.598 153.56 226.626 153.199 226.557 152.862C226.487 152.525 226.35 152.222 226.146 151.954C225.942 151.685 225.691 151.457 225.393 151.27C225.088 151.069 224.763 150.913 224.418 150.8C224.083 150.691 223.734 150.628 223.369 150.61C223.008 150.582 222.671 150.617 222.357 150.717C222.034 150.814 221.745 150.978 221.49 151.209C221.235 151.44 221.045 151.748 220.919 152.133C220.793 152.519 220.765 152.88 220.835 153.217C220.904 153.554 221.041 153.857 221.245 154.125C221.439 154.391 221.689 154.624 221.994 154.824C222.302 155.015 222.623 155.164 222.958 155.274C223.303 155.386 223.656 155.457 224.017 155.485C224.372 155.499 224.711 155.458 225.034 155.362C225.357 155.265 225.646 155.101 225.901 154.87C226.156 154.639 226.347 154.331 226.472 153.946Z" fill="white"/>
<path d="M227.154 146.357C227.686 146.427 228.096 146.315 228.385 146.021C228.673 145.727 228.873 145.341 228.986 144.862C229.025 144.696 229.058 144.506 229.086 144.294C229.106 144.068 229.102 143.853 229.073 143.649C229.044 143.445 228.976 143.27 228.867 143.124C228.751 142.965 228.577 142.864 228.346 142.82C228.115 142.777 227.909 142.816 227.726 142.938C227.544 143.06 227.382 143.236 227.241 143.466C227.091 143.683 226.948 143.94 226.813 144.237C226.677 144.534 226.535 144.836 226.387 145.141C226.236 145.456 226.072 145.758 225.895 146.045C225.72 146.322 225.515 146.565 225.28 146.773C225.047 146.97 224.778 147.11 224.474 147.192C224.159 147.272 223.799 147.264 223.394 147.169C222.957 147.067 222.618 146.877 222.375 146.601C222.125 146.312 221.95 145.986 221.848 145.622C221.739 145.245 221.695 144.851 221.715 144.439C221.737 144.016 221.791 143.623 221.877 143.259C221.974 142.844 222.114 142.46 222.295 142.107C222.468 141.742 222.689 141.432 222.958 141.177C223.228 140.912 223.548 140.718 223.917 140.596C224.277 140.461 224.687 140.42 225.146 140.473L224.711 142.329C224.265 142.312 223.933 142.442 223.714 142.72C223.498 142.987 223.343 143.319 223.251 143.714C223.221 143.838 223.196 143.991 223.176 144.173C223.157 144.344 223.161 144.515 223.187 144.686C223.205 144.843 223.259 144.988 223.349 145.118C223.428 145.247 223.556 145.332 223.733 145.373C223.951 145.424 224.145 145.393 224.314 145.279C224.486 145.155 224.647 144.984 224.796 144.767C224.938 144.537 225.077 144.274 225.212 143.977C225.348 143.679 225.491 143.373 225.642 143.057C225.79 142.752 225.953 142.456 226.13 142.169C226.307 141.881 226.512 141.639 226.745 141.441C226.981 141.233 227.25 141.088 227.555 141.006C227.862 140.913 228.213 140.913 228.608 141.006C229.086 141.118 229.466 141.323 229.747 141.619C230.028 141.916 230.232 142.265 230.357 142.667C230.484 143.059 230.544 143.479 230.538 143.927C230.531 144.375 230.479 144.807 230.382 145.223C230.262 145.732 230.094 146.192 229.877 146.602C229.663 147.001 229.403 147.335 229.099 147.603C228.787 147.859 228.437 148.04 228.05 148.147C227.655 148.241 227.218 148.237 226.737 148.135L227.154 146.357Z" fill="white"/>
<path d="M227.381 133.302C227.092 133.28 226.808 133.301 226.527 133.367C226.249 133.422 226.001 133.525 225.783 133.676C225.557 133.815 225.366 134.002 225.211 134.238C225.048 134.462 224.943 134.727 224.896 135.034C224.848 135.351 224.862 135.65 224.938 135.932C225.006 136.202 225.125 136.447 225.297 136.668C225.46 136.876 225.665 137.059 225.912 137.215C226.16 137.361 226.437 137.462 226.742 137.519L227.381 133.302ZM227.931 137.7C228.248 137.748 228.561 137.752 228.87 137.712C229.18 137.662 229.46 137.564 229.709 137.417C229.958 137.271 230.172 137.071 230.352 136.817C230.52 136.562 230.633 136.244 230.691 135.863C230.771 135.335 230.724 134.895 230.55 134.544C230.367 134.181 230.06 133.886 229.63 133.659L229.889 131.946C230.319 132.109 230.69 132.333 231.004 132.618C231.318 132.903 231.571 133.228 231.765 133.593C231.948 133.956 232.066 134.352 232.12 134.782C232.186 135.203 232.185 135.635 232.118 136.079C232.02 136.724 231.828 137.279 231.541 137.744C231.255 138.209 230.894 138.586 230.461 138.878C230.029 139.158 229.536 139.348 228.98 139.448C228.426 139.537 227.831 139.534 227.197 139.437C226.616 139.349 226.08 139.176 225.589 138.918C225.089 138.648 224.669 138.314 224.33 137.916C223.981 137.507 223.727 137.041 223.568 136.519C223.409 135.998 223.376 135.431 223.469 134.818C223.567 134.173 223.791 133.617 224.143 133.152C224.486 132.674 224.905 132.299 225.4 132.028C225.895 131.757 226.445 131.592 227.049 131.532C227.644 131.46 228.242 131.507 228.844 131.674L227.931 137.7Z" fill="white"/>
<path d="M233.191 122.471L233.082 124.198L231.963 124.127L231.961 124.159C232.425 124.434 232.749 124.813 232.932 125.296C233.105 125.777 233.174 126.279 233.141 126.801C233.1 127.451 232.952 128.014 232.697 128.49C232.432 128.955 232.093 129.335 231.678 129.629C231.263 129.924 230.785 130.134 230.242 130.26C229.688 130.386 229.102 130.429 228.484 130.39C227.738 130.342 227.1 130.2 226.57 129.963C226.039 129.726 225.608 129.431 225.278 129.079C224.948 128.715 224.716 128.316 224.583 127.879C224.441 127.432 224.383 126.984 224.412 126.536C224.428 126.281 224.471 126.021 224.541 125.758C224.601 125.495 224.692 125.244 224.814 125.005C224.936 124.767 225.089 124.552 225.272 124.36C225.445 124.157 225.648 123.994 225.881 123.869L225.883 123.837L221.663 123.57L221.779 121.747L233.191 122.471ZM228.744 128.577C229.095 128.599 229.444 128.578 229.791 128.515C230.138 128.44 230.45 128.321 230.728 128.157C231.007 127.982 231.235 127.756 231.413 127.478C231.591 127.2 231.693 126.865 231.718 126.47C231.744 126.065 231.68 125.714 231.528 125.415C231.377 125.106 231.168 124.852 230.902 124.653C230.638 124.444 230.337 124.286 230.002 124.179C229.656 124.061 229.302 123.99 228.94 123.967C228.024 123.909 227.296 124.071 226.759 124.455C226.221 124.827 225.93 125.365 225.886 126.068C225.859 126.494 225.926 126.862 226.089 127.172C226.241 127.471 226.455 127.725 226.73 127.935C226.996 128.134 227.307 128.287 227.664 128.396C228.011 128.493 228.371 128.553 228.744 128.577Z" fill="white"/>
<path d="M221.744 115.683L221.616 113.685L231.301 113.063L230.929 107.261L232.655 107.151L233.156 114.951L221.744 115.683Z" fill="white"/>
<path d="M232.077 101.668C232.177 102.323 232.16 102.926 232.027 103.476C231.882 104.017 231.646 104.496 231.32 104.913C230.992 105.32 230.579 105.658 230.079 105.928C229.578 106.188 229.01 106.366 228.376 106.462C227.752 106.557 227.162 106.554 226.607 106.454C226.049 106.344 225.554 106.144 225.12 105.852C224.685 105.551 224.324 105.162 224.035 104.687C223.735 104.202 223.535 103.633 223.436 102.977C223.337 102.322 223.359 101.724 223.505 101.183C223.637 100.633 223.868 100.154 224.195 99.7479C224.522 99.3308 224.935 98.9924 225.437 98.7326C225.936 98.4622 226.498 98.2798 227.122 98.1853C227.756 98.0892 228.352 98.0963 228.909 98.2065C229.465 98.3061 229.96 98.5068 230.395 98.8085C230.829 99.0997 231.196 99.4874 231.496 99.9718C231.784 100.447 231.978 101.012 232.077 101.668ZM230.65 101.884C230.589 101.482 230.452 101.146 230.238 100.876C230.024 100.606 229.765 100.396 229.462 100.248C229.158 100.099 228.831 100.008 228.479 99.9746C228.116 99.9324 227.755 99.9384 227.396 99.9929C227.047 100.046 226.705 100.146 226.371 100.294C226.035 100.432 225.749 100.615 225.513 100.846C225.267 101.078 225.082 101.354 224.958 101.676C224.834 101.998 224.802 102.359 224.863 102.761C224.924 103.163 225.061 103.499 225.275 103.769C225.489 104.039 225.748 104.249 226.052 104.398C226.345 104.548 226.673 104.644 227.036 104.686C227.398 104.718 227.753 104.707 228.102 104.655C228.461 104.6 228.809 104.504 229.145 104.367C229.469 104.22 229.754 104.031 230 103.799C230.246 103.567 230.431 103.291 230.555 102.969C230.679 102.647 230.711 102.286 230.65 101.884Z" fill="white"/>
<path d="M230.135 91.7432C230.292 92.3863 230.329 92.9873 230.246 93.5462C230.15 94.0973 229.958 94.5948 229.671 95.0387C229.381 95.4722 229 95.8457 228.527 96.1591C228.051 96.4621 227.502 96.6897 226.88 96.8417C226.268 96.9913 225.681 97.0412 225.119 96.9916C224.555 96.9316 224.045 96.7761 223.588 96.525C223.128 96.2636 222.734 95.9093 222.405 95.4621C222.063 95.0071 221.813 94.458 221.656 93.815C221.499 93.1719 221.468 92.5748 221.564 92.0237C221.648 91.4648 221.834 90.9685 222.124 90.535C222.411 90.0911 222.793 89.7177 223.268 89.4146C223.741 89.1012 224.284 88.8697 224.896 88.7202C225.518 88.5682 226.111 88.5221 226.675 88.5821C227.237 88.6317 227.748 88.7873 228.207 89.0487C228.664 89.2997 229.064 89.6528 229.406 90.1078C229.735 90.555 229.978 91.1001 230.135 91.7432ZM228.735 92.0853C228.639 91.6912 228.472 91.3692 228.235 91.1193C227.998 90.8694 227.722 90.6841 227.407 90.5633C227.092 90.4424 226.758 90.3811 226.406 90.3792C226.04 90.3695 225.682 90.4077 225.329 90.4939C224.987 90.5775 224.656 90.7078 224.336 90.8848C224.014 91.0514 223.746 91.2597 223.533 91.5098C223.309 91.7624 223.149 92.0542 223.054 92.3852C222.959 92.7161 222.96 93.0787 223.056 93.4728C223.152 93.867 223.319 94.189 223.556 94.4389C223.793 94.6887 224.069 94.8741 224.384 94.9949C224.689 95.1182 225.024 95.1848 225.389 95.1945C225.752 95.1939 226.104 95.1517 226.447 95.0681C226.799 94.9819 227.137 94.8555 227.459 94.6889C227.768 94.5145 228.034 94.301 228.258 94.0484C228.482 93.7958 228.642 93.504 228.737 93.173C228.832 92.842 228.831 92.4795 228.735 92.0853Z" fill="white"/>
<path d="M220.396 88.2868L219.843 86.6435L220.908 86.2847L220.897 86.2543C220.359 86.1646 219.92 85.9342 219.58 85.5629C219.231 85.1951 218.97 84.7576 218.799 84.2504C218.591 83.6316 218.521 83.0564 218.591 82.5248C218.647 81.9864 218.816 81.5002 219.099 81.066C219.372 80.6353 219.736 80.2585 220.192 79.9355C220.648 79.6125 221.165 79.3536 221.743 79.1588C222.271 78.9812 222.807 78.8796 223.352 78.8542C223.893 78.8187 224.405 78.878 224.886 79.0322C225.353 79.1796 225.775 79.4271 226.152 79.7745C226.519 80.1254 226.8 80.5899 226.994 81.1681C227.08 81.4217 227.14 81.6838 227.175 81.9545C227.219 82.2217 227.23 82.4891 227.208 82.7566C227.185 83.024 227.131 83.2848 227.048 83.5389C226.95 83.7863 226.817 84.0118 226.649 84.2155L226.659 84.2459L230.584 82.9236L231.169 84.6581L220.396 88.2868ZM222.297 80.9036C221.942 81.0232 221.613 81.185 221.309 81.3891C221.005 81.5931 220.757 81.8292 220.564 82.0972C220.362 82.3686 220.231 82.6669 220.171 82.992C220.101 83.3205 220.126 83.6623 220.246 84.0173C220.492 84.7477 220.931 85.2151 221.565 85.4196C222.195 85.6139 222.931 85.5693 223.773 85.2857C224.169 85.1524 224.524 84.982 224.838 84.7746C225.138 84.5604 225.378 84.3159 225.556 84.0412C225.735 83.7665 225.851 83.4733 225.904 83.1618C225.954 82.84 225.919 82.5017 225.799 82.1467C225.666 81.7511 225.472 81.4437 225.218 81.2244C224.963 81.0052 224.68 80.8521 224.368 80.7651C224.043 80.6714 223.706 80.6436 223.358 80.682C222.995 80.7136 222.642 80.7875 222.297 80.9036Z" fill="white"/>
<path d="M205.295 56.7104C205.069 56.9666 204.882 57.2345 204.735 57.5141C204.588 57.7936 204.497 58.0877 204.46 58.3962C204.423 58.7048 204.45 59.0219 204.541 59.3476C204.617 59.6704 204.771 60.0046 205.004 60.3502C205.345 60.8553 205.743 61.2253 206.198 61.46C206.647 61.6858 207.122 61.7973 207.623 61.7945C208.115 61.7977 208.617 61.7105 209.129 61.5327C209.635 61.346 210.114 61.1002 210.566 60.7953C211.018 60.4903 211.426 60.1382 211.788 59.7389C212.145 59.3307 212.418 58.8948 212.608 58.4311C212.789 57.9735 212.859 57.4943 212.818 56.9934C212.771 56.4836 212.577 55.9762 212.236 55.471C211.985 55.0988 211.702 54.8128 211.386 54.6129C211.062 54.419 210.72 54.2949 210.361 54.2405C209.993 54.1921 209.62 54.212 209.241 54.3001C208.862 54.3882 208.487 54.5311 208.118 54.7288L207.023 53.1071C207.615 52.7598 208.217 52.5341 208.83 52.4299C209.437 52.3168 210.033 52.3209 210.618 52.4422C211.194 52.5695 211.736 52.8096 212.245 53.1626C212.754 53.5156 213.203 53.9801 213.592 54.5562C214.07 55.2652 214.372 55.99 214.498 56.7305C214.609 57.4683 214.57 58.1845 214.381 58.8794C214.192 59.5743 213.868 60.2314 213.409 60.8507C212.944 61.4611 212.37 61.9966 211.688 62.457C211.014 62.9114 210.307 63.24 209.567 63.4428C208.821 63.6367 208.09 63.6911 207.375 63.6061C206.66 63.5211 205.981 63.2892 205.339 62.9102C204.69 62.5224 204.127 61.974 203.648 61.265C203.29 60.7333 203.027 60.1818 202.861 59.6104C202.686 59.045 202.62 58.4894 202.665 57.9436C202.694 57.3949 202.834 56.8752 203.083 56.3846C203.333 55.894 203.696 55.4487 204.174 55.0487L205.295 56.7104Z" fill="white"/>
<path d="M200.297 56.1601L199.166 54.7264L208.145 47.6452L209.276 49.0788L200.297 56.1601Z" fill="white"/>
<path d="M204.31 42.7728C204.751 43.2663 205.067 43.7792 205.256 44.3116C205.431 44.8431 205.496 45.3723 205.451 45.8991C205.399 46.418 205.238 46.927 204.969 47.4261C204.692 47.9173 204.314 48.3764 203.837 48.8034C203.367 49.2233 202.873 49.5435 202.354 49.764C201.828 49.9766 201.304 50.0796 200.783 50.0731C200.254 50.0587 199.739 49.9316 199.239 49.6919C198.723 49.4513 198.244 49.0843 197.803 48.5908C197.362 48.0973 197.054 47.5848 196.879 47.0532C196.69 46.5209 196.621 45.9953 196.673 45.4764C196.717 44.9495 196.878 44.4405 197.155 43.9494C197.425 43.4503 197.795 42.9908 198.264 42.5709C198.742 42.1439 199.244 41.8241 199.77 41.6115C200.289 41.391 200.812 41.2879 201.341 41.3023C201.862 41.3088 202.381 41.4323 202.897 41.6729C203.398 41.9126 203.869 42.2793 204.31 42.7728ZM203.235 43.7335C202.965 43.4311 202.666 43.2253 202.34 43.1163C202.013 43.0073 201.682 42.9737 201.347 43.0155C201.012 43.0572 200.689 43.1601 200.377 43.3242C200.05 43.4874 199.752 43.69 199.481 43.932C199.218 44.1668 198.988 44.4375 198.789 44.744C198.583 45.0425 198.445 45.3524 198.374 45.6736C198.295 46.0019 198.292 46.3345 198.364 46.6712C198.436 47.0079 198.607 47.3275 198.877 47.63C199.148 47.9325 199.446 48.1382 199.773 48.2472C200.1 48.3562 200.43 48.3899 200.766 48.3481C201.093 48.3134 201.42 48.2145 201.746 48.0513C202.066 47.8801 202.357 47.6771 202.62 47.4422C202.89 47.2003 203.129 46.93 203.334 46.6315C203.525 46.3321 203.66 46.0183 203.739 45.6899C203.817 45.3616 203.821 45.0291 203.749 44.6924C203.677 44.3556 203.506 44.036 203.235 43.7335Z" fill="white"/>
<path d="M196.982 39.3832C197.311 38.9566 197.421 38.5438 197.311 38.1448C197.201 37.7458 196.967 37.3768 196.609 37.0379C196.484 36.92 196.336 36.7952 196.166 36.6635C195.98 36.5321 195.791 36.4274 195.599 36.3494C195.407 36.2713 195.221 36.2425 195.039 36.2627C194.842 36.2835 194.667 36.3832 194.513 36.5621C194.358 36.7409 194.288 36.9402 194.302 37.1598C194.316 37.3794 194.387 37.6088 194.515 37.848C194.628 38.0876 194.779 38.3413 194.969 38.6091C195.158 38.8769 195.348 39.1523 195.538 39.4352C195.736 39.7255 195.915 40.0202 196.075 40.3192C196.228 40.6108 196.335 40.9112 196.397 41.2205C196.451 41.5225 196.436 41.8264 196.354 42.1322C196.264 42.4458 196.076 42.7546 195.788 43.0586C195.479 43.3859 195.143 43.5851 194.781 43.656C194.403 43.7273 194.031 43.715 193.664 43.6191C193.282 43.5237 192.918 43.3632 192.57 43.1378C192.214 42.9051 191.9 42.6598 191.627 42.4019C191.315 42.1072 191.052 41.7922 190.838 41.4568C190.609 41.1218 190.451 40.7735 190.365 40.4117C190.271 40.0426 190.264 39.6672 190.344 39.2856C190.41 38.9044 190.581 38.5279 190.859 38.1559L192.25 39.4709C192.011 39.8495 191.956 40.2038 192.087 40.5339C192.21 40.8567 192.419 41.1581 192.715 41.438C192.809 41.5265 192.929 41.6255 193.077 41.7351C193.216 41.8374 193.366 41.9205 193.527 41.9842C193.673 42.0484 193.826 42.0744 193.985 42.0624C194.136 42.0581 194.275 41.9897 194.4 41.8572C194.555 41.6935 194.625 41.5094 194.612 41.3049C194.591 41.0931 194.524 40.8674 194.411 40.6278C194.283 40.3886 194.124 40.1351 193.934 39.8673C193.745 39.5995 193.551 39.3205 193.353 39.0302C193.163 38.7472 192.988 38.4563 192.828 38.1573C192.668 37.8583 192.561 37.5579 192.507 37.2559C192.445 36.9466 192.455 36.639 192.537 36.3332C192.612 36.02 192.789 35.7154 193.069 35.4192C193.408 35.0606 193.777 34.834 194.177 34.7393C194.576 34.6446 194.982 34.6445 195.395 34.7391C195.799 34.8264 196.194 34.9859 196.58 35.2179C196.966 35.4498 197.315 35.7131 197.627 36.0078C198.009 36.3688 198.323 36.7469 198.569 37.142C198.808 37.5298 198.967 37.9237 199.046 38.3235C199.111 38.7238 199.091 39.1189 198.989 39.5087C198.871 39.899 198.646 40.2771 198.315 40.643L196.982 39.3832Z" fill="white"/>
<path d="M185.86 32.5544C185.695 32.7927 185.57 33.0496 185.485 33.3251C185.392 33.5938 185.355 33.8603 185.376 34.1246C185.381 34.3905 185.447 34.6499 185.573 34.903C185.684 35.1576 185.86 35.3825 186.102 35.5776C186.351 35.7794 186.617 35.9186 186.9 35.9951C187.167 36.0733 187.439 36.0938 187.717 36.0566C187.98 36.0211 188.241 35.9362 188.501 35.802C188.752 35.661 188.979 35.4732 189.183 35.2384L185.86 32.5544ZM189.94 34.3014C190.141 34.0516 190.303 33.7831 190.425 33.4961C190.538 33.2024 190.595 32.9109 190.595 32.6216C190.594 32.3324 190.53 32.0462 190.4 31.763C190.265 31.4882 190.047 31.2297 189.747 30.9875C189.331 30.6512 188.927 30.4696 188.536 30.4427C188.129 30.4173 187.719 30.5333 187.305 30.7905L185.956 29.7008C186.313 29.4115 186.695 29.2035 187.1 29.0766C187.505 28.9498 187.914 28.8949 188.327 28.9118C188.733 28.9371 189.136 29.0352 189.535 29.2059C189.932 29.3616 190.305 29.5807 190.655 29.8632C191.163 30.2735 191.546 30.7201 191.802 31.2028C192.059 31.6855 192.204 32.1878 192.237 32.7096C192.261 33.2247 192.176 33.7476 191.981 34.2784C191.778 34.8024 191.475 35.3143 191.071 35.814C190.701 36.2721 190.281 36.648 189.809 36.9417C189.323 37.237 188.822 37.4311 188.307 37.524C187.776 37.6185 187.246 37.6027 186.715 37.4765C186.184 37.3503 185.676 37.0921 185.193 36.7019C184.685 36.2916 184.319 35.8167 184.094 35.2773C183.854 34.7395 183.742 34.188 183.758 33.623C183.774 33.0579 183.909 32.4993 184.162 31.947C184.401 31.3964 184.744 30.9031 185.192 30.4672L189.94 34.3014Z" fill="white"/>
<path d="M179.479 22.0605L180.914 23.0265L180.288 23.9565L180.315 23.9744C180.787 23.713 181.277 23.6249 181.786 23.7101C182.289 23.8042 182.758 23.9974 183.192 24.2895C183.732 24.6533 184.143 25.0653 184.425 25.5256C184.693 25.9888 184.849 26.4737 184.894 26.9803C184.939 27.4869 184.879 28.0064 184.714 28.5387C184.542 29.0798 184.284 29.6073 183.938 30.121C183.521 30.741 183.076 31.2202 182.603 31.5586C182.131 31.8971 181.659 32.12 181.188 32.2274C180.708 32.3289 180.246 32.3268 179.802 32.2211C179.343 32.1184 178.928 31.9418 178.556 31.6913C178.343 31.5482 178.141 31.38 177.95 31.1866C177.752 31.0021 177.581 30.797 177.437 30.5713C177.293 30.3455 177.185 30.1052 177.112 29.8502C177.024 29.598 176.985 29.3402 176.995 29.0767L176.969 29.0588L174.607 32.5663L173.093 31.5466L179.479 22.0605ZM182.504 28.9818C182.701 28.6895 182.859 28.3778 182.979 28.0466C183.09 27.7095 183.145 27.3796 183.144 27.0568C183.133 26.728 183.053 26.4167 182.903 26.1228C182.754 25.829 182.515 25.5717 182.187 25.3511C181.851 25.1245 181.515 25.0016 181.181 24.9823C180.837 24.957 180.513 25.0089 180.207 25.1378C179.893 25.2607 179.605 25.4401 179.343 25.6758C179.066 25.9144 178.827 26.1843 178.624 26.4854C178.111 27.2472 177.884 27.9569 177.944 28.6146C177.994 29.2663 178.311 29.789 178.896 30.1825C179.25 30.4211 179.602 30.5485 179.951 30.5649C180.286 30.5842 180.614 30.5279 180.934 30.3961C181.24 30.2672 181.529 30.076 181.803 29.8226C182.062 29.572 182.295 29.2918 182.504 28.9818Z" fill="white"/>
<path d="M167.807 28.501L166.016 27.6074L170.348 18.9222L165.146 16.3271L165.918 14.7792L172.912 18.2679L167.807 28.501Z" fill="white"/>
<path d="M160.889 12.5107C161.505 12.7532 162.018 13.0696 162.426 13.46C162.821 13.8564 163.117 14.2999 163.314 14.7906C163.501 15.2773 163.586 15.8043 163.569 16.3714C163.543 16.9347 163.412 17.5144 163.177 18.1105C162.947 18.6967 162.649 19.2049 162.284 19.6351C161.91 20.0615 161.488 20.389 161.02 20.6175C160.541 20.8422 160.024 20.96 159.469 20.971C158.9 20.9879 158.308 20.8752 157.692 20.6327C157.076 20.3901 156.57 20.0707 156.176 19.6743C155.767 19.2839 155.469 18.8454 155.282 18.3586C155.085 17.868 155 17.341 155.027 16.7777C155.044 16.2106 155.167 15.6339 155.398 15.0477C155.633 14.4516 155.937 13.9404 156.312 13.5141C156.676 13.0838 157.098 12.7563 157.576 12.5316C158.045 12.3031 158.564 12.1803 159.133 12.1633C159.688 12.1524 160.273 12.2682 160.889 12.5107ZM160.361 13.8519C159.984 13.7033 159.625 13.6537 159.284 13.7031C158.943 13.7526 158.633 13.8712 158.352 14.0591C158.071 14.247 157.829 14.4843 157.624 14.7709C157.406 15.0636 157.23 15.3788 157.097 15.7166C156.968 16.0445 156.884 16.3899 156.844 16.753C156.794 17.1122 156.81 17.4511 156.891 17.7699C156.968 18.0986 157.115 18.3972 157.33 18.6657C157.546 18.9342 157.842 19.1428 158.22 19.2914C158.597 19.4401 158.957 19.4897 159.297 19.4402C159.638 19.3908 159.949 19.2721 160.229 19.0842C160.506 18.9062 160.753 18.6709 160.972 18.3783C161.18 18.0817 161.349 17.7695 161.478 17.4416C161.611 17.1038 161.703 16.7553 161.752 16.3962C161.788 16.0431 161.767 15.7021 161.69 15.3734C161.613 15.0447 161.467 14.7461 161.251 14.4776C161.036 14.2091 160.739 14.0006 160.361 13.8519Z" fill="white"/>
<path d="M151.318 9.22613C151.953 9.41282 152.491 9.68237 152.933 10.0348C153.361 10.3945 153.695 10.8099 153.935 11.281C154.165 11.7492 154.297 12.2665 154.331 12.8329C154.354 13.3963 154.276 13.9853 154.095 14.5999C153.917 15.2043 153.666 15.737 153.341 16.198C153.007 16.656 152.616 17.0198 152.169 17.2892C151.713 17.5556 151.208 17.719 150.656 17.7793C150.091 17.8469 149.491 17.7873 148.856 17.6007C148.221 17.414 147.689 17.1408 147.261 16.7811C146.819 16.4287 146.483 16.0184 146.253 15.5503C146.014 15.0791 145.882 14.5618 145.858 13.9984C145.824 13.432 145.896 12.8466 146.074 12.2422C146.255 11.6276 146.512 11.0913 146.847 10.6333C147.172 10.1722 147.563 9.80853 148.019 9.54212C148.466 9.2727 148.972 9.1042 149.537 9.03662C150.089 8.97627 150.682 9.03944 151.318 9.22613ZM150.911 10.6091C150.522 10.4947 150.16 10.4772 149.825 10.5568C149.49 10.6364 149.191 10.7823 148.928 10.9944C148.665 11.2066 148.445 11.4645 148.267 11.7682C148.075 12.0792 147.928 12.4088 147.826 12.7571C147.726 13.0952 147.673 13.4468 147.666 13.8119C147.648 14.1741 147.694 14.5103 147.803 14.8206C147.91 15.1411 148.082 15.4255 148.321 15.6737C148.559 15.922 148.873 16.1033 149.262 16.2177C149.652 16.3321 150.014 16.3495 150.349 16.2699C150.684 16.1903 150.983 16.0445 151.245 15.8323C151.505 15.6304 151.731 15.374 151.922 15.0631C152.104 14.7491 152.244 14.4231 152.343 14.085C152.446 13.7367 152.506 13.3815 152.523 13.0194C152.527 12.6644 152.476 12.3267 152.37 12.0062C152.264 11.6856 152.092 11.4012 151.853 11.153C151.614 10.9048 151.3 10.7235 150.911 10.6091Z" fill="white"/>
<path d="M143.502 15.874L141.806 15.538L142.023 14.4382L141.992 14.432C141.647 14.8535 141.23 15.1192 140.74 15.2291C140.248 15.3494 139.741 15.3577 139.217 15.254C138.578 15.1275 138.046 14.9023 137.62 14.5786C137.182 14.2632 136.845 13.8754 136.609 13.4152C136.372 12.9654 136.226 12.4632 136.173 11.9083C136.12 11.3535 136.152 10.7776 136.27 10.1806C136.378 9.63593 136.556 9.12151 136.804 8.63731C137.042 8.15104 137.347 7.73794 137.719 7.39799C138.079 7.06645 138.502 6.82377 138.99 6.66997C139.475 6.52665 140.017 6.51409 140.614 6.63231C140.876 6.68416 141.132 6.76219 141.384 6.86641C141.637 6.96015 141.874 7.08324 142.094 7.23569C142.315 7.38813 142.514 7.56364 142.692 7.76223C142.858 7.96922 142.987 8.19618 143.08 8.44309L143.111 8.44931L143.914 4.39584L145.705 4.75048L143.502 15.874ZM138.055 10.5666C137.983 10.9332 137.959 11.2987 137.985 11.663C138.011 12.0273 138.092 12.3591 138.229 12.6582C138.363 12.9679 138.557 13.2293 138.808 13.4424C139.058 13.666 139.366 13.8141 139.733 13.8866C140.487 14.036 141.109 13.8871 141.601 13.4402C142.081 12.9911 142.408 12.3319 142.58 11.4626C142.661 11.0541 142.689 10.6625 142.666 10.2877C142.629 9.92129 142.537 9.59271 142.387 9.30192C142.238 9.01114 142.042 8.76547 141.799 8.56491C141.545 8.36228 141.235 8.22467 140.868 8.15208C140.459 8.0712 140.097 8.08655 139.781 8.19814C139.465 8.30973 139.192 8.47882 138.962 8.70542C138.72 8.94041 138.529 9.21824 138.389 9.53889C138.237 9.86794 138.126 10.2105 138.055 10.5666Z" fill="white"/>
<path d="M108.588 13.0757C108.695 13.4002 108.833 13.6959 109.001 13.9629C109.168 14.2298 109.376 14.4566 109.624 14.6433C109.872 14.8299 110.16 14.9657 110.486 15.0508C110.803 15.1472 111.169 15.1814 111.585 15.1534C112.192 15.1125 112.711 14.9545 113.142 14.6794C113.562 14.405 113.897 14.0507 114.146 13.6166C114.396 13.1931 114.572 12.7157 114.676 12.1844C114.768 11.6538 114.797 11.1168 114.76 10.5735C114.723 10.0302 114.624 9.5018 114.461 8.98839C114.287 8.4757 114.048 8.02093 113.743 7.62409C113.439 7.2379 113.06 6.93699 112.607 6.72136C112.143 6.50645 111.607 6.41942 111 6.46029C110.552 6.4904 110.163 6.5915 109.832 6.76359C109.502 6.94633 109.224 7.17911 108.996 7.46193C108.77 7.75541 108.6 8.08791 108.486 8.45945C108.372 8.83098 108.307 9.22592 108.293 9.64427L106.343 9.77547C106.34 9.09079 106.447 8.45753 106.665 7.8757C106.872 7.29458 107.174 6.78194 107.572 6.33779C107.971 5.90428 108.451 5.55631 109.011 5.29388C109.571 5.03144 110.198 4.87693 110.89 4.83033C111.742 4.77297 112.52 4.87583 113.222 5.13889C113.915 5.41332 114.514 5.80643 115.019 6.3182C115.525 6.82998 115.93 7.43947 116.234 8.1467C116.528 8.85463 116.702 9.61876 116.757 10.4391C116.812 11.2487 116.741 12.024 116.545 12.7649C116.338 13.5066 116.018 14.1648 115.586 14.7397C115.154 15.3145 114.613 15.7843 113.963 16.1491C113.303 16.5146 112.547 16.726 111.695 16.7834C111.055 16.8264 110.447 16.7763 109.87 16.6332C109.294 16.5008 108.782 16.2784 108.333 15.9662C107.874 15.6653 107.495 15.2842 107.196 14.8227C106.898 14.3612 106.696 13.8237 106.59 13.2101L108.588 13.0757Z" fill="white"/>
<path d="M105.556 17.1229L103.748 17.3754L102.166 6.04977L103.974 5.79724L105.556 17.1229Z" fill="white"/>
<path d="M96.01 6.90553C96.6587 6.77321 97.2607 6.75938 97.816 6.86404C98.363 6.9813 98.8527 7.19197 99.2853 7.49603C99.7074 7.80223 100.066 8.19768 100.361 8.68236C100.645 9.16918 100.852 9.72644 100.98 10.3542C101.106 10.9714 101.133 11.5597 101.062 12.1191C100.98 12.6806 100.805 13.1849 100.537 13.632C100.258 14.0812 99.8889 14.4616 99.4294 14.7733C98.9616 15.0976 98.4034 15.3259 97.7548 15.4582C97.1061 15.5905 96.5083 15.598 95.9613 15.4808C95.406 15.3761 94.9173 15.1707 94.4952 14.8645C94.0627 14.5604 93.7041 14.165 93.4196 13.6782C93.1245 13.1935 92.9141 12.6425 92.7881 12.0253C92.6601 11.3975 92.6369 10.8029 92.7185 10.2414C92.7896 9.68202 92.9646 9.17774 93.2435 8.72854C93.5119 8.28148 93.88 7.89581 94.3478 7.57154C94.8073 7.25985 95.3614 7.03785 96.01 6.90553ZM96.2982 8.3179C95.9006 8.399 95.5724 8.55312 95.3136 8.78027C95.0549 9.00742 94.859 9.27621 94.7262 9.58664C94.5934 9.89706 94.5193 10.2282 94.5039 10.5801C94.4802 10.9445 94.5046 11.3046 94.5771 11.6603C94.6476 12.0055 94.7651 12.3412 94.9297 12.6672C95.0838 12.9954 95.2817 13.271 95.5234 13.4942C95.7672 13.7278 96.0526 13.8984 96.3797 14.006C96.7068 14.1137 97.0691 14.1269 97.4666 14.0458C97.8642 13.9647 98.1924 13.8106 98.4512 13.5834C98.7099 13.3563 98.9057 13.0875 99.0386 12.7771C99.1735 12.4771 99.2529 12.1449 99.2766 11.7805C99.2899 11.4181 99.2613 11.0644 99.1909 10.7191C99.1183 10.3634 99.005 10.0215 98.8508 9.69329C98.6884 9.37772 98.4852 9.10313 98.2414 8.86954C97.9976 8.63594 97.7122 8.46533 97.3851 8.3577C97.058 8.25006 96.6957 8.2368 96.2982 8.3179Z" fill="white"/>
<path d="M89.3659 11.4426C89.1647 10.9452 88.865 10.6435 88.4669 10.5375C88.0687 10.4315 87.634 10.4475 87.1626 10.5854C86.9986 10.6334 86.8171 10.6976 86.6182 10.7781C86.412 10.8718 86.2271 10.9815 86.0637 11.1072C85.9002 11.2329 85.7816 11.3789 85.7079 11.5451C85.6269 11.7245 85.6245 11.9255 85.7007 12.1479C85.7769 12.3704 85.9129 12.5309 86.1086 12.6294C86.3043 12.7278 86.5371 12.7821 86.807 12.7921C87.0697 12.8154 87.3637 12.8128 87.6892 12.7843C88.0146 12.7558 88.3466 12.731 88.6853 12.7098C89.0342 12.6855 89.3774 12.6797 89.7148 12.6922C90.042 12.7077 90.354 12.7666 90.651 12.8689C90.9376 12.9741 91.1917 13.1389 91.4131 13.3634C91.6375 13.5981 91.8082 13.9153 91.9252 14.315C92.0511 14.7454 92.0536 15.134 91.9326 15.4809C91.8044 15.8411 91.6069 16.1547 91.3402 16.4219C91.0662 16.7023 90.745 16.9354 90.3766 17.1211C89.9979 17.3097 89.6293 17.4566 89.2706 17.5615C88.8607 17.6814 88.4578 17.7493 88.0619 17.765C87.6587 17.794 87.2801 17.7546 86.9259 17.6468C86.5615 17.5421 86.2355 17.3593 85.9478 17.0986C85.6529 16.8512 85.4153 16.5146 85.2352 16.089L87.0644 15.5537C87.2693 15.9499 87.5465 16.1747 87.8959 16.2282C88.2351 16.2847 88.5993 16.256 88.9888 16.1421C89.1117 16.1061 89.2573 16.0524 89.4255 15.9809C89.5835 15.9124 89.7304 15.825 89.8661 15.7185C89.9946 15.6253 90.0935 15.5073 90.163 15.3646C90.2355 15.2321 90.2463 15.0788 90.1953 14.9046C90.1323 14.6894 90.0096 14.5362 89.8272 14.4449C89.6345 14.3567 89.4068 14.3009 89.1441 14.2777C88.8742 14.2676 88.5765 14.2769 88.2511 14.3053C87.9256 14.3338 87.5885 14.3602 87.2395 14.3844C86.9009 14.4056 86.5628 14.41 86.2254 14.3974C85.888 14.3849 85.576 14.326 85.2893 14.2208C84.9924 14.1185 84.7332 13.9552 84.5117 13.7307C84.2801 13.5093 84.1073 13.2038 83.9933 12.8144C83.8554 12.343 83.846 11.9119 83.9653 11.521C84.0845 11.1301 84.2884 10.7812 84.5768 10.4743C84.855 10.1704 85.1907 9.91082 85.5839 9.69565C85.9771 9.48048 86.3786 9.31292 86.7885 9.19298C87.2906 9.04605 87.7734 8.96597 88.2368 8.95276C88.6899 8.94254 89.1083 9.00368 89.492 9.13617C89.8684 9.28191 90.1983 9.49688 90.4817 9.78108C90.7579 10.0785 90.97 10.4615 91.1182 10.9298L89.3659 11.4426Z" fill="white"/>
<path d="M77.9134 17.6146C78.0371 17.875 78.1966 18.1101 78.392 18.3199C78.5775 18.5336 78.7892 18.6971 79.0272 18.8105C79.2591 18.9377 79.5154 19.0097 79.796 19.0267C80.0705 19.0575 80.3517 19.0171 80.6397 18.9056C80.9376 18.7903 81.1896 18.63 81.3955 18.4247C81.5954 18.2331 81.7482 18.0084 81.8539 17.7505C81.9535 17.5064 82.0099 17.2391 82.023 16.9486C82.0262 16.6619 81.9771 16.3727 81.8755 16.0808L77.9134 17.6146ZM81.4431 14.9637C81.3278 14.6658 81.1766 14.3932 80.9895 14.1459C80.7925 13.9025 80.5692 13.7092 80.3197 13.566C80.0702 13.4228 79.7913 13.3366 79.4832 13.3075C79.1789 13.2883 78.848 13.3479 78.4905 13.4862C77.994 13.6784 77.6372 13.9364 77.42 14.2603C77.1967 14.5979 77.0933 15.009 77.1096 15.4937L75.5009 16.1164C75.4289 15.6647 75.4386 15.2328 75.5302 14.8205C75.6219 14.4083 75.7774 14.0284 75.9968 13.6808C76.2201 13.3432 76.5042 13.0448 76.8492 12.7857C77.1804 12.5205 77.5545 12.3071 77.9716 12.1457C78.5773 11.9112 79.152 11.8029 79.6956 11.8209C80.2392 11.8388 80.744 11.9631 81.2101 12.1937C81.6662 12.4282 82.0748 12.761 82.4358 13.1922C82.7868 13.6272 83.0777 14.1426 83.3083 14.7384C83.5197 15.2845 83.6352 15.8336 83.6548 16.3855C83.6682 16.9512 83.5872 17.4792 83.4116 17.9696C83.23 18.4738 82.9531 18.9236 82.5809 19.3188C82.2087 19.7141 81.7346 20.0232 81.1586 20.2462C80.5529 20.4806 79.9618 20.561 79.3852 20.4874C78.8025 20.4275 78.2716 20.2505 77.7924 19.9564C77.3132 19.6624 76.8983 19.2692 76.5479 18.7768C76.1914 18.2983 75.9364 17.7576 75.783 17.1547L81.4431 14.9637Z" fill="white"/>
<path d="M65.6115 17.9724L67.1668 17.2152L67.6575 18.2232L67.6863 18.2092C67.6968 17.6696 67.8665 17.2011 68.1954 16.8034C68.529 16.4154 68.931 16.1068 69.4014 15.8778C69.987 15.5927 70.5497 15.4434 71.0895 15.43C71.6243 15.4309 72.1222 15.5388 72.5831 15.7538C73.0441 15.9688 73.4634 16.2812 73.8411 16.6911C74.2235 17.1106 74.5502 17.5988 74.8213 18.1556C75.1485 18.8276 75.34 19.4528 75.396 20.0312C75.452 20.6096 75.4083 21.1297 75.2649 21.5913C75.112 22.0577 74.8785 22.4564 74.5646 22.7873C74.2458 23.1326 73.8848 23.4033 73.4816 23.5997C73.2512 23.7118 73.0043 23.8023 72.7409 23.8712C72.4822 23.9496 72.2191 23.9946 71.9516 24.0061C71.684 24.0176 71.4217 23.991 71.1645 23.9262C70.9024 23.8757 70.6599 23.78 70.4369 23.6391L70.4081 23.6532L72.259 27.4548L70.6174 28.254L65.6115 17.9724ZM73.1166 18.8252C72.9623 18.5084 72.772 18.2151 72.5457 17.9453C72.3097 17.6802 72.0517 17.4673 71.7716 17.3068C71.482 17.1509 71.1725 17.0641 70.8432 17.0463C70.5139 17.0285 70.1716 17.106 69.8164 17.279C69.4516 17.4566 69.177 17.6853 68.9926 17.9651C68.7986 18.2496 68.6807 18.5563 68.639 18.8854C68.5878 19.2191 68.5985 19.5583 68.6713 19.9029C68.7391 20.2617 68.8525 20.6044 69.0114 20.9308C69.4134 21.7564 69.9137 22.3084 70.5125 22.587C71.1016 22.8702 71.713 22.8575 72.3466 22.549C72.7306 22.3621 73.0173 22.1216 73.2066 21.8275C73.3911 21.5477 73.5066 21.2361 73.5532 20.8928C73.5948 20.5637 73.5746 20.2173 73.4925 19.8535C73.4055 19.504 73.2802 19.1612 73.1166 18.8252Z" fill="white"/>
<path d="M65.2997 31.1853L63.638 32.2864L58.2998 24.2306L53.4743 27.4282L52.523 25.9926L59.0101 21.6938L65.2997 31.1853Z" fill="white"/>
<path d="M48.0337 29.2634C48.5527 28.8525 49.0836 28.5683 49.6264 28.411C50.1674 28.2686 50.6995 28.2355 51.2227 28.3115C51.7376 28.3941 52.236 28.5851 52.7181 28.8844C53.1918 29.1903 53.6275 29.5943 54.0252 30.0966C54.4162 30.5905 54.7063 31.1031 54.8954 31.6343C55.0761 32.1722 55.1476 32.7012 55.11 33.2213C55.064 33.748 54.9063 34.2541 54.637 34.7397C54.366 35.2403 53.971 35.696 53.452 36.1069C52.933 36.5179 52.403 36.7945 51.862 36.9368C51.3192 37.0942 50.7904 37.1315 50.2755 37.0489C49.7523 36.9729 49.2538 36.7819 48.7801 36.476C48.2981 36.1767 47.8615 35.7802 47.4705 35.2863C47.0728 34.784 46.7836 34.2639 46.6029 33.726C46.4138 33.1948 46.3423 32.6658 46.3883 32.1391C46.4259 31.619 46.5803 31.1087 46.8513 30.6081C47.1205 30.1226 47.5147 29.6743 48.0337 29.2634ZM48.9285 30.3935C48.6104 30.6454 48.3871 30.9311 48.2588 31.2506C48.1304 31.5701 48.0771 31.8983 48.0987 32.2353C48.1204 32.5723 48.2037 32.9012 48.3489 33.2221C48.4922 33.558 48.6766 33.8683 48.902 34.1529C49.1207 34.4291 49.3771 34.6756 49.6711 34.8922C49.9568 35.1154 50.2578 35.272 50.5742 35.362C50.8972 35.4603 51.229 35.4837 51.5694 35.4321C51.9098 35.3804 52.2391 35.2287 52.5572 34.9768C52.8753 34.7249 53.0986 34.4393 53.2269 34.1197C53.3553 33.8002 53.4086 33.472 53.387 33.135C53.372 32.8064 53.2928 32.4742 53.1494 32.1383C52.9977 31.809 52.8124 31.5062 52.5937 31.23C52.3683 30.9454 52.1128 30.6914 51.8271 30.4682C51.5397 30.26 51.2345 30.1067 50.9115 30.0083C50.5885 29.91 50.2567 29.8866 49.9163 29.9383C49.5759 29.9899 49.2466 30.1417 48.9285 30.3935Z" fill="white"/>
<path d="M40.3876 35.8817C40.8685 35.4268 41.3723 35.0971 41.8992 34.8927C42.4256 34.7034 42.9527 34.6236 43.4806 34.6533C44.0007 34.6904 44.5141 34.8369 45.0206 35.0926C45.5193 35.3557 45.9888 35.72 46.4291 36.1854C46.862 36.643 47.196 37.1281 47.431 37.6407C47.6583 38.1606 47.776 38.6812 47.7842 39.2026C47.7846 39.7313 47.672 40.2494 47.4465 40.7567C47.2205 41.2792 46.867 41.7678 46.3861 42.2228C45.9052 42.6777 45.4015 42.9998 44.8751 43.1892C44.3483 43.3936 43.8248 43.4772 43.3047 43.4401C42.7768 43.4104 42.2635 43.264 41.7647 43.0009C41.2582 42.7451 40.7885 42.3884 40.3556 41.9308C39.9153 41.4654 39.5816 40.9727 39.3543 40.4528C39.1193 39.9402 39.0016 39.4196 39.0011 38.8908C38.993 38.3695 39.1019 37.8476 39.3278 37.3251C39.5534 36.8178 39.9066 36.3366 40.3876 35.8817ZM41.3781 36.9288C41.0834 37.2077 40.8861 37.5119 40.7863 37.8414C40.6866 38.171 40.6622 38.5027 40.7134 38.8364C40.7646 39.1702 40.8765 39.4905 41.0493 39.7974C41.2216 40.1194 41.4325 40.4123 41.682 40.676C41.9241 40.932 42.2012 41.1549 42.5131 41.3449C42.8173 41.5421 43.131 41.6717 43.454 41.7335C43.7844 41.8031 44.1169 41.7972 44.4515 41.7159C44.7861 41.6346 45.1008 41.4545 45.3955 41.1756C45.6903 40.8968 45.8876 40.5926 45.9873 40.263C46.0871 39.9335 46.1114 39.6018 46.0603 39.2681C46.0164 38.9421 45.9084 38.6181 45.736 38.2961C45.5559 37.9814 45.3448 37.6961 45.1027 37.4401C44.8532 37.1764 44.5764 36.9459 44.2722 36.7486C43.9676 36.5664 43.65 36.4405 43.3196 36.3709C42.9892 36.3014 42.6568 36.3072 42.3222 36.3886C41.9876 36.4699 41.6729 36.65 41.3781 36.9288Z" fill="white"/>
<path d="M42.1988 45.9821L41.0531 47.278L40.2132 46.5354L40.192 46.5594C40.3822 47.0697 40.4013 47.564 40.2492 48.0423C40.105 48.5277 39.8562 48.9704 39.5026 49.3704C39.0711 49.8584 38.6083 50.2045 38.1141 50.4089C37.6208 50.6284 37.116 50.7237 36.5999 50.6949C36.0917 50.6733 35.5846 50.5456 35.0786 50.312C34.5725 50.0783 34.0915 49.76 33.6356 49.3569C33.2196 48.9891 32.8651 48.576 32.5722 48.1174C32.2721 47.6669 32.0691 47.1953 31.9632 46.7025C31.8582 46.2249 31.8622 45.7367 31.9752 45.2381C32.0963 44.7465 32.3584 44.2727 32.7615 43.8168C32.9383 43.6168 33.1351 43.4345 33.3519 43.2699C33.5607 43.0982 33.7864 42.9557 34.0291 42.8424C34.2718 42.7292 34.5238 42.6456 34.7852 42.5917C35.0476 42.5528 35.3087 42.5557 35.5687 42.6002L35.5899 42.5762L32.4941 39.8392L33.7035 38.4713L42.1988 45.9821ZM34.8689 48.0102C35.1489 48.2577 35.4527 48.4622 35.7803 48.6236C36.108 48.7849 36.4354 48.8821 36.7627 48.9149C37.098 48.9548 37.4211 48.9198 37.7321 48.8099C38.051 48.707 38.3342 48.5156 38.5818 48.2356C39.091 47.6597 39.2764 47.0469 39.1381 46.3973C38.9928 45.7557 38.5881 45.1414 37.9241 44.5544C37.6122 44.2786 37.2884 44.0565 36.9527 43.888C36.618 43.7346 36.2875 43.6491 35.9611 43.6313C35.6348 43.6136 35.3237 43.6592 35.0278 43.7681C34.7249 43.8851 34.4496 44.0836 34.2021 44.3636C33.9263 44.6755 33.7569 44.9961 33.6939 45.3252C33.631 45.6544 33.6394 45.9754 33.7191 46.2882C33.7998 46.616 33.9434 46.9211 34.1498 47.2034C34.3572 47.5008 34.5969 47.7697 34.8689 48.0102Z" fill="white"/>
<path d="M22.1898 74.7248C22.5244 74.795 22.8492 74.8247 23.1643 74.8138C23.4794 74.8029 23.78 74.7371 24.066 74.6165C24.352 74.4959 24.6138 74.3157 24.8516 74.076C25.0941 73.8505 25.3077 73.5511 25.4924 73.1779C25.7622 72.6324 25.8865 72.1042 25.8652 71.5933C25.8392 71.092 25.7011 70.6247 25.4509 70.1912C25.2103 69.7625 24.8863 69.3699 24.4789 69.0135C24.0668 68.6667 23.6167 68.3726 23.1286 68.1311C22.6405 67.8897 22.1335 67.7104 21.6078 67.5933C21.0773 67.4857 20.5639 67.464 20.0675 67.5282C19.5808 67.5971 19.1303 67.7734 18.716 68.0569C18.2971 68.3499 17.9527 68.7692 17.6828 69.3148C17.484 69.7167 17.3758 70.104 17.3583 70.4765C17.3504 70.8538 17.4116 71.2117 17.542 71.5501C17.6819 71.8933 17.8838 72.2076 18.1477 72.493C18.4115 72.7784 18.7206 73.0325 19.0749 73.2555L18.2086 75.0069C17.615 74.6656 17.1214 74.2547 16.7278 73.774C16.3294 73.303 16.0383 72.7838 15.8544 72.2163C15.6801 71.6536 15.6203 71.0641 15.6749 70.4479C15.7296 69.8317 15.9108 69.2125 16.2185 68.5904C16.5973 67.8248 17.0769 67.2044 17.6574 66.7291C18.2428 66.2682 18.8837 65.9479 19.5801 65.7683C20.2765 65.5886 21.0069 65.5449 21.7713 65.6371C22.531 65.7389 23.2793 65.9721 24.0162 66.3366C24.7436 66.6964 25.3782 67.1474 25.9201 67.6894C26.4573 68.241 26.8658 68.8481 27.1456 69.5107C27.4254 70.1732 27.5597 70.877 27.5486 71.6219C27.5327 72.3765 27.3354 73.1366 26.9567 73.9022C26.6726 74.4764 26.3238 74.9769 25.9102 75.4037C25.5061 75.8352 25.0563 76.1666 24.5607 76.3979C24.0699 76.6435 23.55 76.7795 23.0009 76.8057C22.4519 76.8319 21.8856 76.7365 21.3021 76.5193L22.1898 74.7248Z" fill="white"/>
<path d="M24.1638 79.3774L23.4742 81.068L12.8856 76.749L13.5752 75.0584L24.1638 79.3774Z" fill="white"/>
<path d="M10.5416 82.5024C10.7527 81.875 11.0429 81.3474 11.4122 80.9197C11.7882 80.5054 12.2162 80.1876 12.6963 79.9661C13.173 79.7548 13.695 79.6432 14.2623 79.6313C14.8262 79.6295 15.4117 79.7308 16.0189 79.9352C16.616 80.1361 17.1386 80.4077 17.5867 80.75C18.0313 81.1025 18.3796 81.507 18.6316 81.9635C18.8801 82.4302 19.0238 82.9405 19.0627 83.4943C19.1084 84.0617 19.0256 84.6591 18.8145 85.2866C18.6033 85.914 18.3097 86.4348 17.9338 86.849C17.5645 87.2768 17.1415 87.5963 16.6648 87.8077C16.1847 88.0291 15.6627 88.1408 15.0988 88.1425C14.5315 88.1544 13.9494 88.0599 13.3523 87.8589C12.7451 87.6546 12.2192 87.3762 11.7745 87.0237C11.3264 86.6814 10.9781 86.2769 10.7296 85.8103C10.4776 85.3537 10.3289 84.8417 10.2832 84.2743C10.2443 83.7205 10.3304 83.1298 10.5416 82.5024ZM11.9077 82.9622C11.7783 83.3467 11.7469 83.7079 11.8135 84.0458C11.88 84.3836 12.0142 84.6879 12.216 84.9586C12.4178 85.2293 12.667 85.4596 12.9636 85.6496C13.2669 85.853 13.5906 86.0126 13.9347 86.1284C14.2686 86.2408 14.6179 86.3077 14.9825 86.329C15.3437 86.3604 15.6814 86.3276 15.9957 86.2306C16.3201 86.137 16.611 85.9758 16.8683 85.7469C17.1255 85.518 17.3189 85.2113 17.4483 84.8268C17.5777 84.4422 17.6091 84.081 17.5426 83.7432C17.476 83.4054 17.3418 83.1011 17.14 82.8304C16.9483 82.5631 16.7008 82.3277 16.3975 82.1242C16.0908 81.9309 15.7705 81.778 15.4366 81.6656C15.0925 81.5498 14.7399 81.4762 14.3787 81.4448C14.0242 81.4269 13.6847 81.4648 13.3603 81.5584C13.0359 81.652 12.745 81.8132 12.4878 82.0421C12.2305 82.2709 12.0372 82.5776 11.9077 82.9622Z" fill="white"/>
<path d="M11.1321 90.5246C10.6009 90.449 10.1896 90.5568 9.89811 90.848C9.60662 91.1392 9.40226 91.5233 9.28502 92.0003C9.24424 92.1662 9.20873 92.3554 9.17849 92.5678C9.15607 92.7932 9.15822 93.0082 9.18492 93.2126C9.21163 93.4171 9.27836 93.5929 9.38512 93.7401C9.49969 93.9002 9.67231 94.0031 9.90298 94.0489C10.1336 94.0946 10.3407 94.0575 10.5241 93.9376C10.7075 93.8178 10.8712 93.6436 11.0153 93.4152C11.1673 93.1996 11.3126 92.944 11.4513 92.6482C11.5899 92.3524 11.7351 92.0527 11.8867 91.7492C12.0408 91.4352 12.2079 91.1354 12.3881 90.8499C12.5657 90.5746 12.7732 90.3343 13.0106 90.1288C13.2455 89.9336 13.5156 89.7966 13.8209 89.7177C14.1365 89.6413 14.4965 89.6529 14.9009 89.7523C15.3364 89.8593 15.6738 90.0522 15.9132 90.3309C16.1604 90.6226 16.3326 90.9508 16.4298 91.3156C16.5349 91.6932 16.5753 92.088 16.551 92.4999C16.5242 92.9221 16.4662 93.3147 16.377 93.6776C16.2751 94.0923 16.1315 94.4749 15.9465 94.8252C15.7692 95.1885 15.5451 95.4962 15.2742 95.7485C15.0007 96.0111 14.6791 96.2014 14.3092 96.3194C13.9472 96.4503 13.5369 96.4869 13.0783 96.4292L13.5332 94.5784C13.9787 94.5999 14.3123 94.473 14.5339 94.1976C14.753 93.9326 14.9109 93.6031 15.0078 93.2091C15.0384 93.0846 15.065 92.9317 15.0876 92.7504C15.1076 92.5794 15.1056 92.4085 15.0817 92.2376C15.0655 92.0797 15.0131 91.9349 14.9246 91.8032C14.8464 91.674 14.7191 91.5878 14.5429 91.5444C14.3251 91.4909 14.131 91.5202 13.9605 91.6322C13.7875 91.7546 13.625 91.9236 13.4731 92.1391C13.329 92.3676 13.1876 92.6297 13.0489 92.9255C12.9102 93.2212 12.7638 93.5261 12.6097 93.8401C12.4581 94.1436 12.2922 94.4382 12.112 94.7238C11.9319 95.0094 11.7244 95.2497 11.4895 95.4449C11.252 95.6504 10.9807 95.7926 10.6754 95.8715C10.3676 95.9608 10.0167 95.957 9.62267 95.8601C9.14571 95.7429 8.76809 95.5346 8.48981 95.2353C8.21153 94.936 8.01204 94.5846 7.89132 94.1811C7.76805 93.788 7.71201 93.3674 7.72319 92.9193C7.73436 92.4712 7.79093 92.0398 7.89288 91.6251C8.01777 91.117 8.19076 90.6593 8.41187 90.2518C8.63042 89.8547 8.89326 89.5235 9.20038 89.2581C9.51533 89.0057 9.86682 88.8282 10.2549 88.7257C10.6507 88.6361 11.0884 88.6447 11.5679 88.7516L11.1321 90.5246Z" fill="white"/>
<path d="M10.746 103.573C11.034 103.598 11.3183 103.579 11.5989 103.516C11.8777 103.464 12.1265 103.363 12.3452 103.215C12.5728 103.079 12.765 102.893 12.9219 102.659C13.0876 102.437 13.1952 102.173 13.2446 101.868C13.2958 101.552 13.2847 101.252 13.2114 100.97C13.1469 100.7 13.0299 100.454 12.8603 100.232C12.6996 100.022 12.4968 99.8377 12.2521 99.6791C12.0056 99.5311 11.7304 99.4271 11.4264 99.3671L10.746 103.573ZM10.2406 99.1753C9.92443 99.1241 9.61194 99.1168 9.30316 99.1534C8.99269 99.2005 8.71228 99.2957 8.46194 99.4391C8.2116 99.5825 7.99575 99.7801 7.81439 100.032C7.64357 100.286 7.52746 100.602 7.46607 100.982C7.38081 101.509 7.42327 101.948 7.59346 102.3C7.77248 102.664 8.07583 102.962 8.50348 103.194L8.22723 104.901C7.79988 104.735 7.43105 104.507 7.12073 104.219C6.81041 103.931 6.56047 103.604 6.37091 103.238C6.19188 102.874 6.07765 102.477 6.02821 102.047C5.96653 101.626 5.9715 101.194 6.04312 100.751C6.14714 100.108 6.34463 99.5563 6.63559 99.095C6.92654 98.6337 7.28989 98.2598 7.72561 97.9734C8.15964 97.6975 8.65465 97.5126 9.21066 97.4186C9.76496 97.3352 10.3583 97.3447 10.9908 97.447C11.5705 97.5408 12.1041 97.7191 12.5916 97.9818C13.0879 98.2568 13.5038 98.5945 13.8392 98.9949C14.1834 99.4075 14.4323 99.875 14.5857 100.397C14.7392 100.92 14.7665 101.487 14.6676 102.098C14.5635 102.741 14.3336 103.293 13.9777 103.755C13.6306 104.229 13.2084 104.598 12.7112 104.864C12.2139 105.13 11.6635 105.29 11.0599 105.343C10.4651 105.409 9.86804 105.356 9.26863 105.183L10.2406 99.1753Z" fill="white"/>
<path d="M4.84603 114.343L4.97331 112.618L6.0914 112.7L6.09376 112.668C5.63265 112.388 5.3129 112.006 5.1345 111.522C4.96675 111.038 4.90212 110.536 4.94062 110.014C4.98855 109.364 5.1424 108.803 5.40216 108.329C5.67178 107.868 6.01538 107.491 6.43294 107.201C6.85051 106.911 7.33139 106.705 7.8756 106.585C8.43046 106.465 9.0167 106.428 9.63431 106.474C10.3797 106.529 11.0165 106.677 11.5446 106.92C12.0728 107.162 12.5004 107.461 12.8274 107.817C13.1537 108.184 13.3809 108.586 13.5092 109.024C13.6474 109.473 13.7 109.921 13.667 110.369C13.6481 110.624 13.6022 110.883 13.5294 111.145C13.4671 111.408 13.3737 111.658 13.2492 111.896C13.1246 112.133 12.9697 112.346 12.7844 112.536C12.6089 112.737 12.4043 112.898 12.1705 113.02L12.1681 113.052L16.3849 113.364L16.2506 115.184L4.84603 114.343ZM9.3562 108.284C9.0048 108.258 8.65558 108.275 8.30854 108.335C7.96072 108.406 7.64702 108.522 7.36745 108.683C7.0871 108.855 6.85645 109.079 6.67551 109.355C6.49457 109.631 6.38956 109.965 6.36049 110.359C6.33063 110.764 6.39029 111.116 6.53945 111.417C6.68782 111.727 6.89376 111.983 7.15727 112.185C7.41998 112.397 7.71858 112.558 8.05304 112.668C8.39737 112.79 8.75056 112.864 9.11261 112.891C10.0284 112.959 10.7571 112.804 11.2989 112.426C11.8399 112.059 12.1363 111.524 12.1882 110.822C12.2196 110.396 12.1558 110.027 11.9968 109.715C11.8476 109.415 11.6364 109.159 11.363 108.946C11.0995 108.744 10.7899 108.588 10.4341 108.476C10.0882 108.375 9.7289 108.311 9.3562 108.284Z" fill="white"/>
<path d="M16.2573 121.307L16.3574 123.309L6.65157 123.794L6.94227 129.608L5.21252 129.694L4.82173 121.879L16.2573 121.307Z" fill="white"/>
<path d="M5.72836 135.175C5.63568 134.52 5.65842 133.918 5.79659 133.37C5.94682 132.832 6.1868 132.356 6.51652 131.942C6.84773 131.54 7.26415 131.206 7.76578 130.941C8.2689 130.686 8.83758 130.514 9.47182 130.425C10.0955 130.337 10.6843 130.345 11.2382 130.45C11.7937 130.565 12.2863 130.771 12.7162 131.066C13.1476 131.371 13.5048 131.763 13.788 132.24C14.0832 132.727 14.2772 133.298 14.3699 133.953C14.4626 134.609 14.4338 135.206 14.2835 135.745C14.1454 136.292 13.9107 136.768 13.5795 137.17C13.2498 137.583 12.8333 137.917 12.3302 138.172C11.8286 138.437 11.2659 138.613 10.6423 138.702C10.008 138.791 9.4132 138.778 8.85776 138.663C8.30381 138.558 7.81115 138.353 7.37979 138.047C6.94991 137.752 6.58736 137.361 6.29213 136.875C6.00896 136.397 5.82104 135.831 5.72836 135.175ZM7.1554 134.973C7.2122 135.375 7.3461 135.712 7.55709 135.984C7.76807 136.256 8.02444 136.468 8.32618 136.619C8.62793 136.771 8.95391 136.865 9.30413 136.902C9.66641 136.947 10.0273 136.945 10.3867 136.894C10.7355 136.845 11.0776 136.748 11.413 136.603C11.7498 136.469 12.037 136.289 12.2743 136.061C12.5223 135.832 12.7099 135.557 12.8371 135.237C12.9644 134.918 12.9996 134.557 12.9428 134.155C12.886 133.753 12.7521 133.417 12.5412 133.144C12.3302 132.872 12.0738 132.661 11.7721 132.509C11.4809 132.356 11.1542 132.257 10.7919 132.211C10.4311 132.176 10.0763 132.183 9.72743 132.232C9.36803 132.283 9.01989 132.376 8.68302 132.509C8.35821 132.652 8.07184 132.838 7.82391 133.068C7.57598 133.297 7.38838 133.571 7.26111 133.891C7.13383 134.211 7.0986 134.572 7.1554 134.973Z" fill="white"/>
<path d="M7.55243 145.109C7.40017 144.467 7.36744 143.868 7.45425 143.311C7.55387 142.762 7.74836 142.268 8.03772 141.827C8.32953 141.397 8.71227 141.027 9.18592 140.718C9.66202 140.419 10.2108 140.196 10.8322 140.049C11.4433 139.904 12.0286 139.858 12.5882 139.911C13.1503 139.975 13.6583 140.133 14.1122 140.387C14.5685 140.65 14.9592 141.006 15.2842 141.454C15.6221 141.91 15.8671 142.459 16.0194 143.101C16.1716 143.744 16.1979 144.339 16.0983 144.888C16.0115 145.444 15.8222 145.938 15.5304 146.368C15.241 146.808 14.8583 147.178 14.3822 147.477C13.9085 147.786 13.3662 148.013 12.7551 148.158C12.1337 148.306 11.5419 148.347 10.9799 148.284C10.4203 148.231 9.9123 148.072 9.45595 147.808C9.00205 147.555 8.60619 147.2 8.26835 146.744C7.94333 146.296 7.70469 145.751 7.55243 145.109ZM8.95064 144.778C9.04396 145.171 9.20786 145.493 9.44233 145.744C9.67681 145.995 9.95079 146.181 10.2643 146.304C10.5778 146.426 10.9101 146.49 11.2611 146.494C11.625 146.506 11.983 146.471 12.3352 146.387C12.677 146.306 13.0077 146.178 13.3274 146.004C13.6495 145.84 13.9179 145.634 14.1327 145.387C14.3577 145.136 14.5188 144.847 14.6157 144.517C14.7127 144.188 14.7145 143.827 14.6212 143.433C14.5278 143.039 14.3639 142.717 14.1295 142.467C13.895 142.216 13.621 142.029 13.3075 141.907C13.0044 141.782 12.6709 141.713 12.307 141.701C11.9456 141.699 11.5939 141.739 11.2522 141.82C10.9 141.903 10.5629 142.027 10.2407 142.191C9.93141 142.363 9.66421 142.574 9.43913 142.824C9.21405 143.074 9.05304 143.364 8.95608 143.693C8.85913 144.023 8.85732 144.384 8.95064 144.778Z" fill="white"/>
<path d="M17.2241 148.636L17.7678 150.278L16.7035 150.63L16.7135 150.661C17.2502 150.753 17.687 150.985 18.0239 151.357C18.3709 151.726 18.6284 152.164 18.7962 152.671C19.0009 153.289 19.0673 153.863 18.9953 154.393C18.9368 154.93 18.7653 155.414 18.4809 155.845C18.2065 156.274 17.8411 156.648 17.3846 156.968C16.9281 157.288 16.411 157.543 15.8333 157.734C15.3062 157.909 14.7708 158.007 14.2271 158.03C13.6868 158.063 13.1771 158.001 12.698 157.845C12.2323 157.695 11.8124 157.446 11.4383 157.098C11.0744 156.746 10.7967 156.281 10.6054 155.703C10.5215 155.45 10.463 155.188 10.4297 154.918C10.3864 154.651 10.3768 154.384 10.401 154.117C10.4251 153.851 10.4797 153.591 10.5646 153.338C10.663 153.091 10.7968 152.867 10.9661 152.665L10.956 152.635L7.03326 153.933L6.45936 152.2L17.2241 148.636ZM15.2898 155.991C15.6445 155.874 15.9741 155.714 16.2784 155.512C16.5826 155.31 16.8313 155.076 17.0243 154.809C17.2274 154.54 17.3597 154.243 17.4211 153.919C17.4927 153.591 17.4697 153.25 17.3523 152.896C17.1106 152.166 16.6743 151.697 16.0433 151.49C15.4157 151.293 14.6812 151.334 13.8399 151.612C13.4446 151.743 13.0897 151.911 12.7753 152.117C12.4743 152.329 12.2341 152.571 12.0546 152.844C11.8751 153.118 11.758 153.409 11.7034 153.72C11.6521 154.041 11.6852 154.378 11.8027 154.733C11.9336 155.128 12.1254 155.436 12.3782 155.656C12.631 155.876 12.9126 156.03 13.2231 156.119C13.547 156.214 13.8829 156.243 14.2308 156.207C14.5921 156.177 14.9451 156.105 15.2898 155.991Z" fill="white"/>
<path d="M32.0385 180.368C32.2671 180.114 32.4557 179.848 32.6043 179.57C32.753 179.292 32.8469 178.999 32.886 178.691C32.9252 178.383 32.9007 178.066 32.8125 177.74C32.7392 177.417 32.5873 177.082 32.3571 176.735C32.0206 176.228 31.626 175.856 31.1734 175.618C30.7267 175.389 30.2531 175.274 29.7526 175.273C29.2611 175.266 28.7589 175.349 28.2463 175.523C27.7395 175.706 27.2592 175.947 26.8055 176.249C26.3518 176.55 25.9424 176.898 25.5773 177.294C25.2181 177.699 24.9418 178.133 24.7483 178.594C24.5638 179.05 24.4902 179.528 24.5277 180.028C24.571 180.538 24.761 181.046 25.0975 181.553C25.3455 181.927 25.6262 182.215 25.9397 182.417C26.2621 182.613 26.6024 182.739 26.9606 182.796C27.3277 182.848 27.7008 182.831 28.0801 182.746C28.4593 182.66 28.8342 182.521 29.2048 182.326L30.2853 183.954C29.6923 184.296 29.0892 184.517 28.476 184.616C27.8686 184.725 27.2734 184.716 26.6903 184.591C26.1161 184.459 25.5761 184.215 25.0705 183.859C24.5648 183.502 24.1201 183.035 23.7363 182.457C23.264 181.745 22.9679 181.019 22.848 180.278C22.743 179.54 22.7874 178.825 22.9813 178.133C23.1753 177.44 23.5039 176.786 23.9672 176.171C24.4363 175.565 25.0134 175.035 25.6985 174.58C26.3746 174.132 27.0831 173.809 27.8238 173.612C28.5705 173.424 29.3006 173.375 30.0141 173.466C30.7276 173.556 31.4038 173.793 32.0426 174.176C32.6874 174.568 33.2459 175.12 33.7183 175.832C34.0725 176.366 34.3305 176.919 34.4922 177.491C34.6627 178.057 34.7237 178.612 34.6752 179.157C34.6415 179.705 34.4983 180.223 34.2455 180.711C33.9928 181.199 33.6261 181.641 33.1456 182.037L32.0385 180.368Z" fill="white"/>
<path d="M37.0542 181L38.17 182.445L29.1183 189.433L28.0025 187.988L37.0542 181Z" fill="white"/>
<path d="M32.9004 194.343C32.4635 193.847 32.1524 193.332 31.9673 192.798C31.7972 192.266 31.7365 191.737 31.7852 191.211C31.8409 190.693 32.0056 190.186 32.2791 189.689C32.5597 189.201 32.9403 188.745 33.4208 188.322C33.8932 187.907 34.3896 187.591 34.9098 187.374C35.437 187.166 35.9611 187.067 36.4819 187.078C37.0098 187.096 37.523 187.227 38.0214 187.471C38.5349 187.715 39.0101 188.086 39.447 188.582C39.8839 189.079 40.1874 189.593 40.3575 190.126C40.5427 190.659 40.6074 191.185 40.5516 191.703C40.5029 192.228 40.3383 192.736 40.0577 193.224C39.7841 193.721 39.4111 194.177 38.9386 194.593C38.4582 195.015 37.9543 195.331 37.427 195.539C36.9068 195.755 36.3828 195.854 35.8549 195.836C35.334 195.825 34.8169 195.698 34.3034 195.453C33.805 195.21 33.3373 194.84 32.9004 194.343ZM33.9815 193.392C34.2493 193.696 34.5459 193.904 34.8713 194.016C35.1968 194.127 35.527 194.163 35.8621 194.124C36.1972 194.085 36.521 193.985 36.8336 193.823C37.1613 193.663 37.4613 193.463 37.7336 193.223C37.9979 192.991 38.2304 192.722 38.4312 192.417C38.6391 192.121 38.7798 191.812 38.8531 191.492C38.9345 191.165 38.9406 190.833 38.8714 190.496C38.8022 190.159 38.6337 189.838 38.3659 189.534C38.0981 189.229 37.8015 189.021 37.476 188.91C37.1506 188.798 36.8203 188.762 36.4853 188.801C36.1582 188.833 35.8309 188.93 35.5032 189.09C35.1825 189.259 34.8901 189.459 34.6258 189.692C34.3535 189.931 34.1135 190.199 33.9056 190.496C33.7127 190.794 33.5756 191.106 33.4943 191.433C33.4129 191.761 33.4068 192.093 33.476 192.43C33.5452 192.767 33.7137 193.088 33.9815 193.392Z" fill="white"/>
<path d="M40.2033 197.833C39.8681 198.255 39.7525 198.666 39.8567 199.066C39.961 199.467 40.1899 199.839 40.5435 200.183C40.6665 200.302 40.8124 200.429 40.9811 200.563C41.1649 200.697 41.3522 200.805 41.5429 200.885C41.7336 200.966 41.9198 200.997 42.1016 200.98C42.2985 200.962 42.4753 200.865 42.632 200.688C42.7888 200.511 42.8618 200.313 42.8511 200.093C42.8404 199.874 42.7727 199.643 42.648 199.402C42.5385 199.161 42.3908 198.906 42.205 198.635C42.0192 198.365 41.8333 198.087 41.6473 197.801C41.4537 197.508 41.2789 197.211 41.123 196.91C40.9748 196.617 40.872 196.315 40.8145 196.005C40.7647 195.702 40.7832 195.399 40.8699 195.094C40.9641 194.782 41.1569 194.476 41.4484 194.176C41.7623 193.853 42.1008 193.659 42.4638 193.593C42.842 193.527 43.2138 193.545 43.5792 193.646C43.9598 193.746 44.3223 193.912 44.6667 194.142C45.0189 194.38 45.3295 194.629 45.5985 194.891C45.906 195.19 46.1645 195.509 46.374 195.847C46.5987 196.185 46.7515 196.535 46.8324 196.898C46.921 197.268 46.9225 197.644 46.8369 198.024C46.7664 198.404 46.5897 198.778 46.3068 199.146L44.9345 197.812C45.1794 197.437 45.2389 197.084 45.1129 196.752C44.9946 196.427 44.7894 196.123 44.4973 195.839C44.405 195.749 44.2861 195.649 44.1404 195.537C44.0025 195.433 43.8534 195.348 43.6932 195.282C43.5482 195.216 43.3962 195.187 43.2371 195.197C43.0855 195.199 42.9461 195.266 42.8191 195.396C42.6621 195.558 42.5889 195.741 42.5993 195.946C42.6175 196.158 42.6813 196.384 42.7909 196.625C42.9156 196.866 43.0709 197.122 43.2566 197.392C43.4424 197.662 43.6322 197.944 43.8259 198.237C44.0119 198.523 44.1828 198.816 44.3387 199.117C44.4946 199.418 44.5974 199.72 44.6472 200.023C44.7046 200.333 44.69 200.64 44.6033 200.944C44.5243 201.256 44.3428 201.559 44.0587 201.851C43.7149 202.204 43.3427 202.426 42.9421 202.515C42.5415 202.604 42.1357 202.598 41.7249 202.498C41.3217 202.405 40.9289 202.24 40.5464 202.003C40.1639 201.765 39.8189 201.497 39.5114 201.198C39.1347 200.832 38.826 200.45 38.5854 200.051C38.3524 199.66 38.199 199.264 38.1251 198.863C38.0663 198.462 38.0911 198.068 38.1994 197.679C38.3228 197.291 38.5526 196.916 38.8887 196.555L40.2033 197.833Z" fill="white"/>
<path d="M51.203 204.782C51.3699 204.546 51.4971 204.291 51.5845 204.017C51.6802 203.75 51.7192 203.485 51.7014 203.221C51.6987 202.956 51.6358 202.696 51.5128 202.442C51.4049 202.187 51.2315 201.961 50.9926 201.764C50.7454 201.561 50.4815 201.419 50.2009 201.34C49.9352 201.259 49.6637 201.236 49.3864 201.27C49.1241 201.303 48.8627 201.385 48.6022 201.516C48.35 201.654 48.1213 201.839 47.9161 202.071L51.203 204.782ZM47.1519 202.998C46.9481 203.245 46.784 203.511 46.6597 203.796C46.5436 204.088 46.4843 204.378 46.4817 204.667C46.4791 204.955 46.5407 205.241 46.6666 205.525C46.7992 205.801 47.0139 206.061 47.3104 206.305C47.7223 206.645 48.1231 206.83 48.5129 206.861C48.9177 206.89 49.328 206.779 49.7437 206.526L51.0782 207.627C50.7187 207.912 50.3363 208.115 49.9309 208.238C49.5255 208.36 49.117 208.411 48.7054 208.39C48.3006 208.36 47.9001 208.258 47.5041 208.084C47.1096 207.925 46.7393 207.702 46.3933 207.417C45.8908 207.003 45.5139 206.554 45.2626 206.07C45.0113 205.586 44.872 205.083 44.8447 204.562C44.8256 204.048 44.9159 203.528 45.1155 203C45.3234 202.48 45.6311 201.972 46.0387 201.478C46.4123 201.025 46.8356 200.654 47.3085 200.366C47.7964 200.077 48.2979 199.888 48.8128 199.801C49.3428 199.712 49.872 199.733 50.4004 199.864C50.9288 199.996 51.4319 200.258 51.9096 200.652C52.4122 201.067 52.7728 201.544 52.9916 202.084C53.2254 202.623 53.3315 203.174 53.3098 203.737C53.2881 204.301 53.1481 204.857 52.8898 205.405C52.6465 205.951 52.2991 206.44 51.8474 206.87L47.1519 202.998Z" fill="white"/>
<path d="M57.531 215.315L56.1062 214.334L56.7419 213.411L56.7155 213.392C56.2407 213.649 55.7494 213.732 55.2413 213.642C54.7393 213.542 54.2728 213.344 53.8418 213.048C53.3053 212.678 52.8983 212.262 52.6208 211.799C52.3582 211.333 52.207 210.847 52.1671 210.34C52.1273 209.833 52.1927 209.314 52.3635 208.783C52.5403 208.244 52.8043 207.719 53.1554 207.209C53.5792 206.593 54.029 206.119 54.5049 205.785C54.9807 205.452 55.4549 205.234 55.9273 205.131C56.4085 205.034 56.8705 205.041 57.3131 205.151C57.7705 205.259 58.184 205.44 58.5534 205.694C58.7645 205.839 58.9648 206.01 59.1544 206.205C59.3501 206.392 59.5188 206.598 59.6606 206.826C59.8023 207.053 59.9083 207.294 59.9786 207.55C60.0637 207.803 60.0998 208.061 60.087 208.325L60.1134 208.343L62.5108 204.86L64.0148 205.895L57.531 215.315ZM54.5777 208.363C54.3779 208.653 54.2163 208.963 54.093 209.293C53.9784 209.629 53.9202 209.958 53.9184 210.281C53.9253 210.61 54.0022 210.922 54.1488 211.218C54.2955 211.513 54.5315 211.773 54.857 211.997C55.1912 212.227 55.5255 212.353 55.8598 212.376C56.2029 212.405 56.528 212.356 56.8349 212.23C57.1506 212.111 57.4405 211.934 57.7046 211.701C57.9835 211.465 58.2259 211.198 58.4317 210.899C58.9524 210.143 59.1865 209.435 59.1341 208.777C59.0904 208.125 58.7784 207.599 58.1979 207.199C57.8461 206.957 57.4956 206.826 57.1464 206.806C56.812 206.783 56.484 206.836 56.1622 206.965C55.8553 207.091 55.5637 207.279 55.2875 207.529C55.0262 207.777 54.7896 208.055 54.5777 208.363Z" fill="white"/>
<path d="M69.2584 208.987L71.0406 209.899L66.6192 218.54L71.7947 221.188L71.0068 222.728L64.049 219.168L69.2584 208.987Z" fill="white"/>
<path d="M76.0126 225.054C75.3992 224.805 74.8902 224.483 74.4858 224.088C74.0952 223.688 73.804 223.241 73.6122 222.748C73.4302 222.26 73.3506 221.732 73.3733 221.165C73.4059 220.602 73.5426 220.024 73.7835 219.43C74.0204 218.846 74.3234 218.341 74.6923 217.915C75.0712 217.492 75.4961 217.169 75.9672 216.946C76.4481 216.726 76.9662 216.614 77.5214 216.609C78.0905 216.598 78.6818 216.717 79.2952 216.966C79.9086 217.214 80.4106 217.539 80.8011 217.94C81.2056 218.334 81.4988 218.776 81.6808 219.265C81.8726 219.757 81.9522 220.285 81.9196 220.848C81.897 221.415 81.7672 221.99 81.5303 222.574C81.2893 223.168 80.9794 223.676 80.6006 224.098C80.2316 224.525 79.8067 224.848 79.3257 225.067C78.8547 225.291 78.3346 225.408 77.7655 225.419C77.2103 225.424 76.626 225.303 76.0126 225.054ZM76.5547 223.718C76.9306 223.871 77.2892 223.924 77.6305 223.878C77.9718 223.832 78.2837 223.717 78.5661 223.532C78.8486 223.347 79.0937 223.112 79.3013 222.828C79.5229 222.537 79.7019 222.224 79.8384 221.888C79.971 221.561 80.0589 221.216 80.1024 220.854C80.1558 220.495 80.1436 220.156 80.0659 219.836C79.9922 219.507 79.849 219.207 79.6362 218.936C79.4234 218.665 79.1291 218.454 78.7531 218.301C78.3771 218.149 78.0185 218.095 77.6773 218.141C77.336 218.187 77.0241 218.302 76.7416 218.487C76.4632 218.662 76.2131 218.895 75.9916 219.185C75.7799 219.48 75.6079 219.79 75.4753 220.117C75.3388 220.453 75.2439 220.801 75.1905 221.159C75.1511 221.512 75.1682 221.853 75.2419 222.183C75.3156 222.512 75.4588 222.812 75.6716 223.083C75.8843 223.354 76.1787 223.565 76.5547 223.718Z" fill="white"/>
<path d="M85.5522 228.438C84.919 228.245 84.3835 227.97 83.9454 227.613C83.5208 227.249 83.1909 226.83 82.956 226.356C82.7312 225.886 82.6049 225.367 82.577 224.8C82.5593 224.237 82.644 223.648 82.8311 223.036C83.0151 222.433 83.2718 221.903 83.6013 221.446C83.9411 220.991 84.3356 220.632 84.7848 220.367C85.2443 220.105 85.7503 219.947 86.3028 219.893C86.8687 219.831 87.4682 219.897 88.1013 220.09C88.7345 220.283 89.2634 220.562 89.6881 220.926C90.1261 221.283 90.4575 221.697 90.6822 222.168C90.9172 222.641 91.0435 223.16 91.0612 223.723C91.0891 224.29 91.0111 224.875 90.8271 225.477C90.64 226.09 90.3766 226.624 90.0369 227.078C89.7073 227.536 89.3129 227.895 88.8534 228.157C88.4041 228.422 87.8966 228.585 87.3307 228.646C86.7782 228.701 86.1853 228.632 85.5522 228.438ZM85.9731 227.06C86.3612 227.178 86.7231 227.199 87.059 227.123C87.3948 227.047 87.6952 226.905 87.96 226.695C88.2249 226.486 88.4481 226.23 88.6296 225.928C88.8244 225.619 88.9748 225.291 89.0808 224.944C89.1837 224.607 89.2407 224.256 89.2517 223.891C89.2729 223.529 89.2306 223.192 89.1247 222.881C89.022 222.559 88.8526 222.273 88.6165 222.022C88.3805 221.772 88.0684 221.587 87.6804 221.469C87.2923 221.35 86.9304 221.329 86.5945 221.405C86.2587 221.481 85.9584 221.624 85.6935 221.833C85.4317 222.032 85.2034 222.286 85.0086 222.595C84.824 222.907 84.6803 223.232 84.5774 223.569C84.4713 223.916 84.4077 224.271 84.3865 224.633C84.3786 224.988 84.4261 225.326 84.5288 225.647C84.6316 225.969 84.801 226.255 85.037 226.506C85.273 226.757 85.5851 226.941 85.9731 227.06Z" fill="white"/>
<path d="M93.4326 221.869L95.1259 222.222L94.8968 223.32L94.9282 223.326C95.2772 222.908 95.6972 222.647 96.188 222.542C96.6811 222.427 97.189 222.424 97.7116 222.533C98.3492 222.666 98.8791 222.897 99.3015 223.225C99.7365 223.545 100.069 223.936 100.3 224.399C100.533 224.851 100.673 225.354 100.721 225.91C100.768 226.465 100.73 227.041 100.606 227.636C100.492 228.18 100.309 228.693 100.056 229.174C99.813 229.658 99.5038 230.068 99.1282 230.404C98.7653 230.732 98.3393 230.97 97.8501 231.119C97.3631 231.257 96.8217 231.264 96.2259 231.14C95.9646 231.085 95.7088 231.005 95.4584 230.898C95.2058 230.801 94.9702 230.676 94.7517 230.521C94.5331 230.367 94.3356 230.189 94.1593 229.989C93.9956 229.78 93.8687 229.552 93.7787 229.304L93.7473 229.297L92.903 233.342L91.1157 232.969L93.4326 221.869ZM98.825 227.232C98.9014 226.866 98.9285 226.501 98.9064 226.136C98.8843 225.772 98.8065 225.439 98.6729 225.139C98.5415 224.828 98.3511 224.564 98.1016 224.349C97.8543 224.123 97.5477 223.971 97.1819 223.895C96.4293 223.738 95.8051 223.88 95.3093 224.322C94.824 224.766 94.4907 225.422 94.3097 226.29C94.2246 226.697 94.192 227.089 94.2119 227.464C94.2444 227.83 94.3338 228.16 94.48 228.452C94.6262 228.744 94.82 228.992 95.0612 229.195C95.3128 229.4 95.6216 229.541 95.9874 229.618C96.395 229.703 96.7574 229.691 97.0745 229.583C97.3917 229.474 97.6663 229.308 97.8986 229.084C98.1434 228.851 98.3373 228.576 98.4803 228.256C98.6359 227.929 98.7508 227.587 98.825 227.232Z" fill="white"/>
<path d="M128.321 225.024C128.217 224.698 128.082 224.401 127.917 224.132C127.752 223.864 127.547 223.635 127.301 223.446C127.054 223.257 126.768 223.118 126.443 223.029C126.127 222.93 125.761 222.892 125.345 222.916C124.738 222.95 124.217 223.103 123.783 223.374C123.36 223.644 123.022 223.995 122.768 224.427C122.514 224.847 122.333 225.323 122.224 225.853C122.126 226.383 122.093 226.92 122.124 227.463C122.155 228.007 122.249 228.536 122.407 229.051C122.575 229.566 122.81 230.023 123.111 230.423C123.411 230.812 123.787 231.117 124.238 231.337C124.7 231.557 125.235 231.649 125.842 231.614C126.29 231.589 126.68 231.492 127.013 231.323C127.345 231.143 127.626 230.914 127.856 230.633C128.085 230.342 128.258 230.011 128.376 229.641C128.494 229.27 128.563 228.876 128.581 228.458L130.532 228.346C130.529 229.031 130.415 229.663 130.191 230.243C129.979 230.822 129.671 231.331 129.268 231.772C128.865 232.201 128.382 232.544 127.819 232.801C127.256 233.058 126.628 233.206 125.935 233.245C125.083 233.294 124.306 233.183 123.606 232.913C122.916 232.632 122.321 232.233 121.821 231.716C121.321 231.199 120.923 230.585 120.625 229.875C120.339 229.164 120.172 228.398 120.125 227.577C120.079 226.767 120.157 225.993 120.361 225.254C120.576 224.514 120.902 223.859 121.34 223.289C121.778 222.718 122.323 222.254 122.977 221.896C123.641 221.537 124.399 221.333 125.252 221.285C125.892 221.248 126.499 221.304 127.074 221.453C127.649 221.592 128.159 221.819 128.605 222.136C129.061 222.441 129.436 222.826 129.73 223.291C130.024 223.755 130.221 224.295 130.32 224.909L128.321 225.024Z" fill="white"/>
<path d="M131.377 221.052L133.185 220.814L134.671 232.135L132.864 232.373L131.377 221.052Z" fill="white"/>
<path d="M140.826 231.351C140.177 231.476 139.576 231.484 139.022 231.374C138.478 231.252 137.991 231.037 137.562 230.729C137.144 230.42 136.79 230.021 136.5 229.535C136.22 229.046 136.02 228.488 135.898 227.86C135.778 227.243 135.757 226.655 135.833 226.097C135.92 225.538 136.1 225.036 136.372 224.592C136.655 224.147 137.027 223.77 137.489 223.464C137.959 223.145 138.518 222.922 139.167 222.796C139.816 222.671 140.413 222.669 140.957 222.791C141.511 222.901 141.997 223.111 142.415 223.421C142.844 223.728 143.198 224.127 143.477 224.615C143.767 225.102 143.972 225.654 144.091 226.271C144.213 226.899 144.231 227.493 144.144 228.053C144.067 228.61 143.888 229.112 143.605 229.558C143.333 230.001 142.961 230.383 142.491 230.702C142.03 231.009 141.474 231.225 140.826 231.351ZM140.552 229.938C140.949 229.861 141.278 229.71 141.539 229.486C141.799 229.262 141.997 228.995 142.133 228.687C142.269 228.378 142.346 228.048 142.365 227.697C142.392 227.334 142.371 226.974 142.302 226.618C142.235 226.273 142.121 225.937 141.96 225.61C141.809 225.281 141.614 225.004 141.375 224.779C141.134 224.543 140.851 224.37 140.526 224.259C140.2 224.149 139.839 224.132 139.441 224.209C139.043 224.286 138.714 224.437 138.454 224.661C138.193 224.885 137.995 225.152 137.859 225.46C137.722 225.758 137.639 226.089 137.612 226.453C137.595 226.814 137.621 227.168 137.687 227.513C137.756 227.869 137.866 228.211 138.017 228.54C138.176 228.857 138.376 229.133 138.617 229.368C138.858 229.604 139.142 229.777 139.467 229.888C139.792 229.998 140.154 230.015 140.552 229.938Z" fill="white"/>
<path d="M147.521 226.856C147.717 227.356 148.013 227.66 148.41 227.771C148.807 227.881 149.242 227.869 149.715 227.736C149.879 227.69 150.062 227.627 150.261 227.549C150.468 227.457 150.654 227.35 150.819 227.226C150.984 227.102 151.104 226.957 151.179 226.791C151.262 226.613 151.267 226.412 151.193 226.189C151.119 225.965 150.985 225.804 150.79 225.703C150.595 225.603 150.363 225.546 150.093 225.533C149.831 225.507 149.537 225.507 149.211 225.532C148.885 225.557 148.553 225.578 148.214 225.596C147.865 225.617 147.522 225.619 147.185 225.603C146.858 225.584 146.546 225.522 146.25 225.417C145.965 225.309 145.712 225.141 145.493 224.914C145.271 224.677 145.104 224.359 144.991 223.958C144.87 223.526 144.871 223.137 144.996 222.792C145.128 222.433 145.328 222.121 145.598 221.857C145.875 221.579 146.198 221.35 146.568 221.168C146.949 220.983 147.319 220.84 147.679 220.739C148.09 220.623 148.494 220.559 148.89 220.548C149.293 220.523 149.671 220.566 150.024 220.677C150.388 220.786 150.712 220.972 150.997 221.236C151.289 221.486 151.523 221.825 151.699 222.253L149.864 222.769C149.663 222.371 149.389 222.143 149.04 222.086C148.701 222.026 148.337 222.051 147.946 222.161C147.823 222.196 147.677 222.248 147.508 222.318C147.349 222.384 147.201 222.47 147.064 222.575C146.935 222.667 146.835 222.784 146.764 222.926C146.69 223.058 146.678 223.211 146.727 223.386C146.788 223.602 146.909 223.756 147.09 223.849C147.282 223.94 147.509 223.998 147.772 224.024C148.041 224.036 148.339 224.03 148.665 224.005C148.991 223.98 149.328 223.957 149.677 223.937C150.016 223.919 150.354 223.918 150.691 223.934C151.029 223.95 151.34 224.012 151.626 224.12C151.921 224.225 152.179 224.391 152.398 224.618C152.627 224.842 152.797 225.149 152.907 225.54C153.04 226.013 153.045 226.444 152.922 226.833C152.798 227.223 152.591 227.57 152.299 227.874C152.018 228.175 151.68 228.431 151.284 228.642C150.889 228.853 150.486 229.017 150.075 229.132C149.571 229.274 149.088 229.349 148.624 229.358C148.171 229.363 147.753 229.298 147.371 229.161C146.996 229.012 146.668 228.793 146.388 228.506C146.115 228.206 145.906 227.821 145.763 227.351L147.521 226.856Z" fill="white"/>
<path d="M159.06 220.76C158.939 220.497 158.783 220.259 158.59 220.046C158.407 219.829 158.197 219.662 157.96 219.545C157.729 219.414 157.473 219.338 157.192 219.317C156.917 219.282 156.635 219.319 156.345 219.426C156.044 219.538 155.789 219.695 155.58 219.898C155.377 220.087 155.22 220.31 155.111 220.567C155.007 220.811 154.947 221.078 154.93 221.369C154.923 221.656 154.968 221.947 155.065 222.241L159.06 220.76ZM155.483 223.367C155.594 223.668 155.742 223.943 155.926 224.194C156.12 224.441 156.341 224.638 156.59 224.785C156.838 224.932 157.116 225.022 157.425 225.056C157.73 225.08 158.062 225.024 158.423 224.891C158.923 224.705 159.285 224.452 159.507 224.13C159.736 223.795 159.845 223.384 159.836 222.898L161.457 222.296C161.523 222.75 161.507 223.183 161.41 223.595C161.312 224.007 161.151 224.386 160.926 224.731C160.697 225.066 160.408 225.362 160.058 225.617C159.722 225.878 159.344 226.086 158.924 226.242C158.313 226.469 157.735 226.569 157.191 226.543C156.646 226.518 156.141 226.386 155.677 226.148C155.223 225.907 154.818 225.567 154.463 225.13C154.117 224.688 153.832 224.168 153.61 223.567C153.405 223.016 153.297 222.464 153.286 221.911C153.28 221.343 153.369 220.815 153.552 220.326C153.741 219.823 154.025 219.376 154.404 218.985C154.783 218.594 155.263 218.29 155.843 218.075C156.454 217.849 157.048 217.776 157.625 217.858C158.208 217.927 158.738 218.112 159.214 218.413C159.691 218.715 160.101 219.115 160.445 219.614C160.796 220.099 161.044 220.644 161.189 221.251L155.483 223.367Z" fill="white"/>
<path d="M171.337 220.594L169.78 221.338L169.298 220.329L169.269 220.343C169.254 220.881 169.082 221.347 168.751 221.741C168.415 222.126 168.012 222.43 167.541 222.655C166.955 222.935 166.393 223.08 165.854 223.089C165.321 223.085 164.825 222.973 164.367 222.756C163.908 222.538 163.493 222.223 163.119 221.811C162.741 221.39 162.418 220.901 162.152 220.344C161.831 219.671 161.644 219.046 161.592 218.469C161.541 217.891 161.588 217.373 161.735 216.913C161.891 216.449 162.126 216.053 162.442 215.726C162.763 215.384 163.125 215.116 163.528 214.923C163.759 214.813 164.006 214.725 164.269 214.658C164.528 214.582 164.79 214.539 165.057 214.529C165.324 214.52 165.586 214.548 165.842 214.615C166.103 214.667 166.344 214.764 166.565 214.906L166.594 214.893L164.776 211.087L166.419 210.302L171.337 220.594ZM163.857 219.688C164.009 220.005 164.196 220.299 164.42 220.57C164.654 220.836 164.909 221.05 165.187 221.213C165.475 221.37 165.783 221.459 166.112 221.479C166.44 221.499 166.782 221.425 167.137 221.255C167.503 221.08 167.778 220.854 167.964 220.576C168.16 220.294 168.28 219.989 168.324 219.661C168.377 219.329 168.369 218.99 168.299 218.646C168.234 218.288 168.123 217.945 167.967 217.618C167.572 216.792 167.077 216.237 166.482 215.955C165.897 215.668 165.287 215.677 164.653 215.98C164.268 216.163 163.98 216.401 163.789 216.693C163.603 216.971 163.486 217.281 163.437 217.623C163.393 217.951 163.411 218.296 163.49 218.66C163.574 219.009 163.696 219.352 163.857 219.688Z" fill="white"/>
<path d="M171.756 207.251L173.439 206.166L178.698 214.324L183.584 211.173L184.522 212.627L177.953 216.862L171.756 207.251Z" fill="white"/>
<path d="M189.061 209.497C188.538 209.901 188.005 210.178 187.461 210.328C186.92 210.464 186.388 210.49 185.867 210.408C185.354 210.319 184.859 210.123 184.381 209.818C183.912 209.507 183.482 209.099 183.091 208.592C182.707 208.095 182.424 207.58 182.242 207.047C182.068 206.508 182.003 205.979 182.047 205.461C182.099 204.936 182.263 204.432 182.537 203.951C182.814 203.455 183.213 203.005 183.736 202.601C184.259 202.197 184.792 201.927 185.333 201.792C185.877 201.642 186.405 201.611 186.918 201.699C187.439 201.782 187.935 201.978 188.404 202.289C188.881 202.594 189.312 202.995 189.696 203.493C190.087 203.999 190.369 204.521 190.543 205.06C190.725 205.593 190.79 206.122 190.738 206.647C190.694 207.165 190.534 207.673 190.257 208.169C189.983 208.65 189.584 209.093 189.061 209.497ZM188.182 208.358C188.502 208.11 188.729 207.828 188.861 207.511C188.992 207.193 189.05 206.866 189.032 206.53C189.015 206.193 188.935 205.864 188.795 205.542C188.656 205.205 188.475 204.893 188.254 204.606C188.039 204.328 187.786 204.079 187.495 203.859C187.213 203.633 186.914 203.473 186.6 203.379C186.278 203.277 185.948 203.25 185.607 203.297C185.267 203.345 184.936 203.492 184.616 203.74C184.295 203.987 184.069 204.27 183.937 204.587C183.805 204.904 183.748 205.231 183.765 205.568C183.776 205.896 183.851 206.228 183.99 206.565C184.138 206.896 184.319 207.2 184.534 207.479C184.755 207.765 185.007 208.022 185.29 208.248C185.574 208.46 185.877 208.616 186.198 208.718C186.519 208.82 186.85 208.848 187.19 208.8C187.531 208.753 187.861 208.605 188.182 208.358Z" fill="white"/>
<path d="M196.758 202.949C196.275 203.399 195.769 203.724 195.242 203.924C194.716 204.109 194.189 204.184 193.663 204.15C193.144 204.109 192.633 203.959 192.13 203.7C191.634 203.434 191.169 203.067 190.733 202.599C190.305 202.139 189.975 201.653 189.745 201.14C189.522 200.619 189.409 200.099 189.404 199.579C189.408 199.051 189.524 198.535 189.753 198.031C189.983 197.512 190.339 197.027 190.822 196.577C191.306 196.126 191.811 195.809 192.337 195.624C192.864 195.424 193.387 195.345 193.906 195.386C194.432 195.42 194.943 195.57 195.439 195.836C195.942 196.095 196.408 196.454 196.836 196.914C197.272 197.382 197.601 197.876 197.824 198.396C198.054 198.91 198.168 199.43 198.164 199.957C198.168 200.477 198.056 200.997 197.826 201.517C197.597 202.021 197.241 202.498 196.758 202.949ZM195.778 201.896C196.074 201.62 196.273 201.318 196.375 200.99C196.477 200.662 196.504 200.332 196.456 199.998C196.407 199.665 196.298 199.345 196.128 199.037C195.958 198.715 195.75 198.421 195.503 198.156C195.264 197.899 194.989 197.674 194.679 197.482C194.377 197.283 194.066 197.151 193.744 197.087C193.415 197.015 193.083 197.019 192.748 197.097C192.414 197.176 192.099 197.353 191.803 197.629C191.506 197.905 191.307 198.207 191.205 198.535C191.103 198.863 191.076 199.193 191.125 199.527C191.166 199.852 191.271 200.176 191.441 200.499C191.618 200.814 191.826 201.101 192.066 201.358C192.313 201.623 192.587 201.855 192.889 202.054C193.192 202.238 193.508 202.366 193.837 202.438C194.166 202.51 194.497 202.507 194.832 202.428C195.166 202.35 195.482 202.172 195.778 201.896Z" fill="white"/>
<path d="M195.08 192.827L196.239 191.547L197.068 192.298L197.09 192.274C196.906 191.763 196.893 191.269 197.05 190.793C197.2 190.31 197.453 189.871 197.811 189.476C198.247 188.994 198.713 188.654 199.209 188.456C199.704 188.243 200.209 188.154 200.724 188.189C201.231 188.216 201.736 188.35 202.238 188.589C202.74 188.828 203.217 189.151 203.667 189.559C204.078 189.931 204.427 190.348 204.714 190.809C205.008 191.262 205.205 191.735 205.305 192.228C205.404 192.706 205.395 193.194 205.276 193.69C205.149 194.179 204.882 194.649 204.474 195.099C204.295 195.297 204.097 195.477 203.878 195.638C203.668 195.807 203.441 195.947 203.197 196.057C202.954 196.167 202.701 196.248 202.44 196.298C202.177 196.334 201.917 196.328 201.658 196.281L201.636 196.304L204.694 199.073L203.471 200.424L195.08 192.827ZM202.42 190.889C202.144 190.638 201.843 190.431 201.518 190.266C201.193 190.101 200.867 190 200.541 189.963C200.206 189.92 199.883 189.951 199.572 190.057C199.252 190.156 198.967 190.343 198.717 190.62C198.202 191.189 198.009 191.798 198.14 192.448C198.277 193.09 198.674 193.708 199.33 194.302C199.638 194.581 199.958 194.807 200.291 194.979C200.624 195.136 200.953 195.225 201.278 195.247C201.604 195.268 201.915 195.227 202.211 195.121C202.515 195.008 202.792 194.813 203.043 194.537C203.322 194.229 203.495 193.911 203.561 193.583C203.628 193.255 203.623 192.934 203.548 192.621C203.471 192.293 203.331 191.987 203.128 191.703C202.925 191.403 202.689 191.132 202.42 190.889Z" fill="white"/>
</svg>
