<svg width="241" height="38" viewBox="0 0 241 38" fill="none" xmlns="http://www.w3.org/2000/svg">
<path d="M4.79088 18.5982C5.21535 18.5982 5.5455 18.4054 5.63982 18.1161L6.5831 15.031L7.52637 11.9457C7.6207 11.6565 7.95084 11.4637 8.37531 11.4637H13.0445H17.6665C18.091 11.4637 18.4212 11.2709 18.5155 10.9816L19.4588 7.89642L20.402 4.81122C20.4964 4.52199 20.8265 4.32916 21.251 4.32916H25.873H30.4951C30.9195 4.32916 31.2497 4.13633 31.344 3.8471L32.0986 1.46892C32.1929 1.17968 31.7685 0.826172 31.2497 0.826172H27.0049H21.6755H17.0534C16.6289 0.826172 16.2988 1.019 16.2045 1.30823L15.2612 4.39344L14.3179 7.47864C14.2236 7.76787 13.8935 7.9607 13.469 7.9607H8.79979H4.17775C3.75328 7.9607 3.42313 8.15352 3.32881 8.44276L2.38553 11.528L0.310335 18.1161C0.216008 18.3733 0.49899 18.5982 0.876299 18.5982H4.79088Z" fill="white"/>
<path d="M61.195 0.825684H57.5635C57.1862 0.825684 56.856 1.01851 56.7617 1.27561L53.6017 11.3346C53.3659 12.1059 53.0358 12.813 52.7528 13.3593C52.4226 13.9056 52.0453 14.3877 51.5737 14.7412C51.1021 15.0947 50.5361 15.3518 49.923 15.5447C49.2627 15.7375 48.4609 15.8018 47.5176 15.8018C46.0556 15.8018 44.9236 15.5768 44.2634 15.159C43.6031 14.7412 43.2258 14.0663 43.2258 13.1343C43.2258 12.6201 43.3201 12.0417 43.5559 11.4311L46.6215 1.46843C46.6687 1.30775 46.6215 1.14706 46.4329 0.986371C46.3385 0.889959 46.1499 0.825684 45.8669 0.825684H42.2825C41.9052 0.825684 41.575 1.01851 41.4807 1.27561L38.3679 11.2704C38.1321 12.0095 37.9906 12.7166 37.9906 13.4236C37.9906 14.3556 38.2264 15.1911 38.6509 15.8982C39.1225 16.6052 39.7357 17.2158 40.5846 17.6657C41.3864 18.1157 42.3768 18.4692 43.5087 18.6941C44.5935 18.9191 45.8669 19.0155 47.2347 19.0155C48.8382 19.0155 50.3003 18.8548 51.5737 18.5656C52.8471 18.2763 53.979 17.7943 54.9223 17.1837C55.8656 16.5731 56.6674 15.7696 57.3276 14.8055C57.9408 13.8735 58.5067 12.7487 58.884 11.4311L61.9497 1.46843C61.9968 1.30775 61.9497 1.14706 61.761 0.986371C61.6667 0.889959 61.4309 0.825684 61.195 0.825684Z" fill="white"/>
<path d="M91.3363 0.825684H71.9049C71.5276 0.825684 71.1974 1.01851 71.1031 1.27561L70.4428 3.36454C70.3956 3.52523 70.4428 3.68592 70.6314 3.84661C70.7729 3.97516 71.0088 4.03943 71.2917 4.03943H78.2248L73.9329 17.9228C73.8857 18.0835 73.9329 18.2442 74.1216 18.4049C74.263 18.5334 74.4989 18.5977 74.7818 18.5977H78.4134C78.7908 18.5977 79.1209 18.4049 79.2152 18.1478L83.6014 4.03943H90.8175C91.1948 4.03943 91.5249 3.84661 91.6193 3.58951L92.2796 1.50057C92.3267 1.33988 92.2796 1.1792 92.0909 1.01851C91.8079 0.889959 91.5721 0.825684 91.3363 0.825684Z" fill="white"/>
<path d="M120.769 0.825106H117.137C116.76 0.825106 116.43 1.01793 116.336 1.27503L113.176 11.334C112.94 12.1053 112.61 12.8124 112.327 13.3587C111.996 13.905 111.619 14.3871 111.148 14.7406C110.676 15.0941 110.11 15.3512 109.497 15.5441C108.837 15.7369 108.035 15.8012 107.091 15.8012C105.629 15.8012 104.497 15.5762 103.837 15.1584C103.177 14.7406 102.8 14.0657 102.8 13.1337C102.8 12.6195 102.894 12.0411 103.13 11.4305L106.195 1.46785C106.243 1.30717 106.195 1.14648 106.007 0.985793C105.865 0.857244 105.629 0.792969 105.346 0.792969H101.762C101.385 0.792969 101.055 0.985793 100.96 1.24289L97.8474 11.2376C97.6116 11.9768 97.4701 12.6838 97.4701 13.3908C97.4701 14.3228 97.7059 15.1584 98.1304 15.8654C98.602 16.5724 99.2152 17.1831 100.064 17.633C100.866 18.0829 101.856 18.4364 102.988 18.6614C104.073 18.8863 105.346 18.9828 106.714 18.9828C108.318 18.9828 109.78 18.8221 111.053 18.5328C112.327 18.2436 113.459 17.7615 114.402 17.1509C115.345 16.5403 116.147 15.7369 116.807 14.7728C117.42 13.8408 117.986 12.716 118.364 11.3983L121.429 1.43572C121.476 1.27503 121.429 1.11434 121.241 0.953656C121.052 0.792969 121.005 0.825106 120.769 0.825106Z" fill="white"/>
<path d="M148.263 2.36828C147.555 1.91836 146.612 1.53271 145.48 1.24347C144.348 0.954233 142.933 0.825684 141.283 0.825684H133.454C133.076 0.825684 132.746 1.01851 132.652 1.27561L127.511 17.9228C127.464 18.0835 127.511 18.2442 127.7 18.4049C127.841 18.5334 128.077 18.5977 128.36 18.5977H131.897C132.274 18.5977 132.605 18.4049 132.699 18.1478L134.633 11.8488H139.396C139.49 11.8488 139.632 11.8488 139.726 11.8488L142.037 18.1799C142.132 18.437 142.462 18.5977 142.839 18.5977H146.659C146.942 18.5977 147.178 18.5013 147.32 18.3727C147.461 18.2442 147.508 18.0514 147.461 17.8907L144.678 11.1739C146.282 10.7883 147.65 10.2098 148.64 9.40639C149.772 8.50654 150.338 7.31745 150.338 5.83913C150.338 5.22852 150.197 4.61791 149.866 4.03943C149.489 3.39668 148.97 2.85034 148.263 2.36828ZM144.584 7.25318C144.348 7.60669 144.018 7.89593 143.547 8.12089C143.075 8.34585 142.556 8.50654 141.896 8.60295C141.236 8.69936 140.481 8.76364 139.679 8.76364H135.529L136.991 3.97516H140.764C141.613 3.97516 142.273 4.03943 142.839 4.13584C143.358 4.26439 143.782 4.39294 144.113 4.58577C144.396 4.74645 144.631 4.93928 144.726 5.16424C144.867 5.3892 144.914 5.6463 144.914 5.9034C144.961 6.4176 144.82 6.86753 144.584 7.25318Z" fill="white"/>
<path d="M166.654 0.825684H163.022C162.645 0.825684 162.315 1.01851 162.22 1.27561L157.032 17.9228C156.985 18.0835 157.032 18.2763 157.221 18.4049C157.362 18.5334 157.598 18.5977 157.881 18.5977H161.513C161.89 18.5977 162.22 18.4049 162.315 18.1478L167.503 1.50057C167.55 1.33988 167.503 1.1792 167.314 1.01851C167.125 0.857821 166.889 0.825684 166.654 0.825684Z" fill="white"/>
<path d="M197.029 0.825684H177.598C177.22 0.825684 176.89 1.01851 176.796 1.27561L176.136 3.36454C176.088 3.52523 176.136 3.68592 176.324 3.84661C176.466 3.97516 176.702 4.03943 176.985 4.03943H183.87L179.579 17.9228C179.531 18.0835 179.579 18.2442 179.767 18.4049C179.909 18.5334 180.145 18.5977 180.428 18.5977H184.059C184.436 18.5977 184.767 18.4049 184.861 18.1478L189.247 4.03943H196.463C196.84 4.03943 197.171 3.84661 197.265 3.58951L197.925 1.50057C197.972 1.33988 197.925 1.1792 197.737 1.01851C197.501 0.889959 197.265 0.825684 197.029 0.825684Z" fill="white"/>
<path d="M227.074 1.14706C226.932 0.954233 226.649 0.825684 226.319 0.825684H222.405C222.169 0.825684 221.886 0.922096 221.744 1.05065L214.009 7.86379L210.614 1.21133C210.519 0.986371 210.189 0.825684 209.859 0.825684H205.992C205.709 0.825684 205.473 0.922096 205.331 1.08278C205.19 1.24347 205.143 1.4363 205.237 1.59698L210.614 11.1739L208.539 17.9228C208.491 18.0835 208.539 18.2442 208.68 18.4049C208.822 18.5334 209.057 18.5977 209.34 18.5977H212.972C213.349 18.5977 213.679 18.4049 213.774 18.1478L215.849 11.3025L227.027 1.75767C227.168 1.56485 227.215 1.33988 227.074 1.14706Z" fill="white"/>
<path d="M234.476 1.17906H235.136C235.183 1.17906 235.231 1.21119 235.183 1.24332L234.759 2.59259C234.759 2.62471 234.759 2.65684 234.806 2.65684H235.278C235.325 2.65684 235.325 2.65684 235.325 2.62471L235.749 1.21119C235.749 1.17906 235.797 1.17906 235.797 1.17906H236.504C236.551 1.17906 236.551 1.17906 236.551 1.14694L236.646 0.889935C236.646 0.857809 236.646 0.825684 236.598 0.825684H234.57C234.523 0.825684 234.523 0.825684 234.523 0.857809L234.429 1.11481C234.382 1.14694 234.429 1.17906 234.476 1.17906Z" fill="white"/>
<path d="M239.52 0.857809L238.577 1.98221C238.53 2.01433 238.483 2.01433 238.435 1.98221L238.2 0.889935C238.2 0.857809 238.153 0.857809 238.153 0.857809H237.634C237.587 0.857809 237.587 0.857809 237.587 0.889935L237.068 2.62472C237.068 2.65684 237.068 2.68897 237.115 2.68897H237.539C237.587 2.68897 237.587 2.68897 237.587 2.65684L237.822 1.88583C237.822 1.8537 237.917 1.8537 237.964 1.88583L238.153 2.62472C238.153 2.65684 238.2 2.65684 238.2 2.65684H238.577C238.577 2.65684 238.624 2.65684 238.624 2.62472L239.284 1.88583C239.332 1.8537 239.426 1.8537 239.379 1.91795L239.143 2.59259C239.143 2.62472 239.143 2.65684 239.19 2.65684H239.615C239.662 2.65684 239.662 2.65684 239.662 2.62472L240.181 0.889935C240.181 0.857809 240.181 0.825684 240.133 0.825684H239.615C239.567 0.825684 239.52 0.825684 239.52 0.857809Z" fill="white"/>
<path d="M5.73591 25.699C5.78307 25.5704 5.97173 25.4419 6.20754 25.4419H6.53769C6.72634 25.4419 6.82067 25.5062 6.86784 25.6026L9.65049 32.8978H9.69766L17.008 25.6026C17.1024 25.5062 17.2438 25.4419 17.4325 25.4419H17.8098C17.9985 25.4419 18.14 25.5704 18.14 25.699L17.4797 36.5293C17.4797 36.7543 17.2438 36.915 16.9609 36.915H14.6027C14.3669 36.915 14.2254 36.7864 14.2725 36.6579L14.9328 30.8731C14.8857 30.8731 14.8857 30.8731 14.8385 30.8731L9.17885 36.8828C9.08453 36.9793 8.94304 37.0757 8.75438 37.0757H8.42424C8.23558 37.0757 8.14125 36.9793 8.09409 36.8828L6.06605 30.8731H6.01889L3.18907 36.6579C3.1419 36.7864 3.00041 36.915 2.71743 36.915H0.359248C0.0762658 36.915 -0.0652253 36.7543 0.0291021 36.5293L5.73591 25.699Z" fill="white"/>
<path d="M21.3465 36.4651L31.5339 25.6347C31.6282 25.5062 31.7697 25.4419 31.9583 25.4419H32.1942C32.3828 25.4419 32.4771 25.5383 32.5243 25.6347L36.2031 36.4651C36.2974 36.69 36.0616 36.8829 35.6843 36.8829H33.5147C33.1374 36.8829 32.9488 36.7864 32.9016 36.5615L32.43 34.7618H26.2987L24.6951 36.5615C24.5536 36.7222 24.2707 36.8829 23.8934 36.8829H21.6295C21.2522 36.915 21.1579 36.69 21.3465 36.4651ZM31.8168 33.0585L30.9207 29.5555H30.8736L27.9023 33.0585H31.8168Z" fill="white"/>
<path d="M44.0819 25.7634C44.129 25.6027 44.3649 25.4741 44.5535 25.4741H45.2138L52.2412 32.448H52.2883L54.1277 25.9562C54.1749 25.7955 54.3635 25.6348 54.6465 25.6348H57.0519C57.2877 25.6348 57.4292 25.7955 57.382 25.9562L54.1749 36.7865C54.1277 36.9472 53.8919 37.0757 53.7033 37.0757H53.043L46.0156 29.877H45.9684L44.0819 36.5937C44.0347 36.7544 43.7989 36.9151 43.5631 36.9151H41.2049C41.0163 36.9151 40.8276 36.7865 40.8748 36.6258L44.0819 25.7634Z" fill="white"/>
<path d="M64.0766 25.9238C64.1237 25.7631 64.3596 25.6024 64.5954 25.6024H67.0479C67.2837 25.6024 67.4252 25.7631 67.378 25.9238L65.3971 32.512C64.9727 33.8939 65.9159 34.9223 67.6138 34.9223C69.3589 34.9223 70.9153 33.8618 71.3397 32.512L73.3206 25.8917C73.3678 25.731 73.6036 25.5703 73.8394 25.5703H76.2919C76.5277 25.5703 76.6692 25.731 76.6221 25.8917L74.6884 32.6406C73.9809 35.083 70.9624 37.0755 67.0479 37.0755C63.6049 37.0755 61.3411 35.083 62.0485 32.6406L64.0766 25.9238Z" fill="white"/>
<path d="M83.321 25.9254C83.3682 25.7647 83.604 25.604 83.8398 25.604H93.0367C93.2725 25.604 93.414 25.7647 93.3669 25.9254L92.9424 27.243C92.8952 27.4037 92.6594 27.5644 92.4236 27.5644H86.0565L85.1604 30.5853H90.4427C90.6785 30.5853 90.82 30.746 90.7729 30.9067L90.3956 32.2243C90.3484 32.385 90.1126 32.5457 89.8768 32.5457H84.5944L83.4153 36.6272C83.3682 36.7878 83.1323 36.9485 82.8965 36.9485H80.5383C80.3025 36.9485 80.161 36.7878 80.2082 36.6272L83.321 25.9254Z" fill="white"/>
<path d="M93.2719 36.4651L103.459 25.6347C103.554 25.5062 103.695 25.4419 103.884 25.4419H104.12C104.308 25.4419 104.403 25.5383 104.45 25.6347L108.128 36.4651C108.223 36.69 107.987 36.8829 107.61 36.8829H105.44C105.063 36.8829 104.874 36.7864 104.827 36.5615L104.355 34.7618H98.1769L96.5733 36.5615C96.4319 36.7222 96.1489 36.8829 95.7716 36.8829H93.5077C93.2247 36.915 93.0832 36.69 93.2719 36.4651ZM103.742 33.0585L102.846 29.5555H102.799L99.8276 33.0585H103.742Z" fill="white"/>
<path d="M122.794 25.4419C125.011 25.4419 126.756 26.0846 127.841 26.9845C127.982 27.113 127.935 27.3059 127.699 27.4344L126.284 28.27C126.001 28.4307 125.671 28.4307 125.482 28.27C124.869 27.8522 123.832 27.4666 122.464 27.4666C119.493 27.4666 116.757 29.4591 116.568 31.773C116.427 33.4763 117.747 34.9546 120.106 34.9546C121.521 34.9546 122.7 34.4725 123.596 33.9905C123.926 33.7976 124.209 33.8298 124.398 34.0226L125.624 35.0831C125.718 35.2117 125.671 35.4045 125.482 35.5331C123.643 36.6257 121.756 37.1078 119.776 37.1078C115.484 37.1078 112.89 34.8582 113.125 32.0944C113.314 28.27 117.653 25.4419 122.794 25.4419Z" fill="white"/>
<path d="M135.155 27.5644H131.901C131.665 27.5644 131.523 27.4037 131.57 27.243L131.995 25.9254C132.042 25.7647 132.278 25.604 132.514 25.604H142.371C142.607 25.604 142.748 25.7647 142.701 25.9254L142.277 27.243C142.229 27.4037 141.994 27.5644 141.758 27.5644H138.503L135.815 36.595C135.768 36.7557 135.532 36.9164 135.296 36.9164H132.891C132.655 36.9164 132.514 36.7557 132.561 36.595L135.155 27.5644Z" fill="white"/>
<path d="M147.463 25.9238C147.511 25.7631 147.746 25.6024 147.982 25.6024H150.435C150.67 25.6024 150.812 25.7631 150.765 25.9238L148.784 32.512C148.359 33.8939 149.303 34.9223 151.001 34.9223C152.746 34.9223 154.302 33.8618 154.727 32.512L156.707 25.8917C156.755 25.731 156.99 25.5703 157.226 25.5703H159.679C159.915 25.5703 160.056 25.731 160.009 25.8917L158.075 32.6406C157.368 35.083 154.349 37.0755 150.435 37.0755C146.992 37.0755 144.728 35.083 145.435 32.6406L147.463 25.9238Z" fill="white"/>
<path d="M166.751 25.9254C166.798 25.7647 167.034 25.604 167.27 25.604H173.826C176.278 25.604 177.929 26.9538 177.788 28.6249C177.646 30.5853 175.948 31.8708 173.543 32.3529L175.241 36.4665C175.335 36.6914 175.146 36.8843 174.769 36.8843H172.411C172.175 36.8843 171.939 36.82 171.892 36.6272L170.43 32.4814H168.072L166.846 36.595C166.798 36.7557 166.563 36.9164 166.327 36.9164H163.921C163.686 36.9164 163.544 36.7557 163.591 36.595L166.751 25.9254ZM171.656 30.746C173.213 30.746 174.345 29.8783 174.392 28.882C174.439 28.1429 173.826 27.5323 172.883 27.5323H169.487L168.543 30.746H171.656Z" fill="white"/>
<path d="M184.72 25.9254C184.767 25.7647 185.003 25.604 185.239 25.604H187.691C187.927 25.604 188.069 25.7647 188.022 25.9254L184.862 36.595C184.814 36.7557 184.579 36.9164 184.343 36.9164H181.89C181.655 36.9164 181.513 36.7557 181.56 36.595L184.72 25.9254Z" fill="white"/>
<path d="M194.91 25.7634C194.957 25.6027 195.193 25.4741 195.381 25.4741H196.042L203.069 32.448H203.116L204.956 25.9562C205.003 25.7955 205.191 25.6348 205.427 25.6348H207.833C208.068 25.6348 208.21 25.7955 208.163 25.9562L204.956 36.7865C204.908 36.9472 204.673 37.0757 204.484 37.0757H203.824L196.843 29.9091H196.796L194.91 36.6258C194.863 36.7865 194.627 36.9472 194.391 36.9472H192.033C191.844 36.9472 191.655 36.8186 191.703 36.658L194.91 25.7634Z" fill="white"/>
<path d="M222.03 25.4419C224.247 25.4419 225.898 26.0204 227.077 26.9845C227.218 27.113 227.171 27.3059 226.935 27.4344L225.568 28.27C225.238 28.4307 224.955 28.4307 224.766 28.27C224.153 27.8522 223.257 27.4666 221.747 27.4666C218.776 27.4666 216.041 29.4591 215.852 31.773C215.711 33.4763 217.267 34.9546 219.436 34.9546C220.616 34.9546 221.512 34.7618 221.983 34.5689L222.408 33.1549H220.804C220.568 33.1549 220.427 33.0263 220.474 32.8657L220.851 31.6123C220.898 31.4195 221.134 31.2909 221.37 31.2909H225.756C225.992 31.2909 226.134 31.4516 226.086 31.6123L224.955 35.4688C224.86 35.7259 224.719 35.8866 224.53 35.983C224.294 36.1116 222.219 37.0757 218.87 37.0757C214.814 37.0757 212.079 34.826 212.315 32.0622C212.551 28.27 216.842 25.4419 222.03 25.4419Z" fill="white"/>
</svg>
